<svg width="142" height="30" viewBox="0 0 142 30" fill="none" xmlns="http://www.w3.org/2000/svg" id="logo">
<rect width="30" height="30" rx="3" fill="#D30D3B"/>
<path d="M15 4C10.6 4 6.64815 6.60741 4.8963 10.6407C4.81481 10.8444 4.8963 11.0889 5.1 11.1704C5.3037 11.2519 5.54815 11.1704 5.62963 10.9667C6.52593 8.92963 8.03333 7.25926 9.86667 6.2C9.2963 6.77037 8.80741 7.46296 8.44074 8.1963C8.27778 8.52222 8.31852 8.92963 8.56296 9.17407C8.92963 9.58148 9.62222 9.37778 9.82593 9.17407C9.98889 9.01111 9.94815 8.80741 9.82593 8.6037C9.62222 8.27778 9.17407 8.6037 9.17407 8.6037C9.17407 8.6037 9.90741 6.44444 12.7185 5.05926C13.2074 4.93704 13.6556 4.8963 14.1444 4.85556C13.737 5.26296 13.2889 5.62963 12.7593 5.95556C12.7593 5.95556 10.8852 7.0963 10.6 7.34074C10.437 7.5037 10.437 7.70741 10.5593 7.91111C10.763 8.1963 11.0481 8.03333 11.1296 7.95185C11.4148 7.74815 13.2074 6.64815 13.2074 6.64815C14.2667 6.2 15.3667 4.85556 15.3667 4.85556C17.2 4.93704 18.9111 5.46667 20.3778 6.4037L19.3593 7.42222C18.7481 8.03333 18.2185 8.44074 17.6889 8.72593C16.3444 9.5 15.2852 10.6407 14.5926 12.0259C14.4296 12.3519 14.4704 12.7593 14.7148 13.0037C15.1222 13.3704 15.7741 13.2074 15.9778 13.0037L16.6704 12.3111C16.8333 12.1481 16.8333 11.9037 16.6704 11.7407C16.5074 11.5778 16.263 11.5778 16.1 11.7407L15.3259 12.4333C15.3259 12.4333 15.9778 10.5593 18.0963 9.41852C18.7074 9.09259 19.2778 8.6037 19.9296 7.95185L21.0704 6.81111C21.2741 6.97407 21.4778 7.13704 21.6815 7.3L20.4185 8.56296C19.9296 9.01111 19.4815 9.41852 18.9519 9.74444L17.7704 10.437C17.5667 10.5593 17.4852 10.8037 17.6074 11.0074C17.7704 11.2926 18.0963 11.2111 18.1778 11.1704L19.3593 10.4778C19.9704 10.1111 20.5 9.66296 20.9889 9.17407L22.2926 7.87037C22.5778 8.15556 22.8222 8.44074 23.0667 8.72593L19.4815 12.3111C18.5852 13.2074 17.8926 14.2259 17.4444 15.3259C16.9556 16.4667 16.3037 17.5667 15.4481 18.5852C15.2852 18.7481 15.3259 18.9926 15.4889 19.1556C15.6926 19.3593 15.9778 19.1963 16.0593 19.1148C16.9556 18.0556 17.6481 16.8741 18.1778 15.6519C18.5852 14.6333 19.1963 13.737 20.0519 12.8815L23.5556 9.37778C24.0444 10.1111 24.4111 10.8852 24.6963 11.7L22.863 13.5741C22.0889 14.1852 21.3963 15.6519 21.3963 15.6519C20.8667 16.5481 20.0926 17.3222 19.1963 17.8519C18.2185 18.463 17.2815 19.1556 16.5074 19.9296L15.3667 21.0704C15.2037 21.2333 14.9593 21.2333 14.7963 21.0704C14.7148 20.9889 14.5926 20.7444 14.7963 20.5C14.9593 20.337 14.9593 20.0926 14.7963 19.9296C14.6333 19.7667 14.3481 19.7667 14.2259 19.9296C13.5333 20.7444 13.9815 21.3963 14.2259 21.6407C14.8778 22.2926 15.6926 21.8852 15.937 21.6407L17.0778 20.5C17.8111 19.7667 18.6667 19.0741 19.6037 18.5037C20.6222 17.8926 21.437 17.037 22.0481 16.0593C22.0481 16.0593 22.7 14.7148 23.4333 14.1444L24.9407 12.5963C25.1037 13.3704 25.1852 14.1852 25.1852 15C25.1852 19.8481 21.763 23.9222 17.2407 24.9407C17.4444 24.7778 17.6481 24.6556 17.8519 24.5333C18.0556 24.4111 18.0963 24.1667 17.9741 23.963C17.8519 23.7593 17.6074 23.7185 17.4037 23.8407C16.6296 24.2481 15.6926 25.1852 15.6926 25.1852C15.4481 25.1852 14.7148 25.2259 14.5926 25.1852L15.163 24.6148C15.6926 24.0852 16.1407 23.7593 16.6296 23.4741L17.8111 22.7815C18.463 22.4148 18.9926 21.9667 19.4407 21.4778C19.4407 21.4778 20.1741 20.7444 20.2148 20.7852C20.2148 20.7852 19.4407 22.1296 18.9519 22.6593C18.7889 22.8222 18.7889 23.0667 18.9519 23.2296C19.1148 23.3926 19.3593 23.3926 19.5222 23.2296C20.0926 22.6185 20.5815 21.9667 20.9481 21.1926C21.1111 20.8667 21.0296 20.4593 20.8259 20.2148C20.3778 19.8481 19.7667 20.0111 19.563 20.2148L18.8704 20.9074C18.463 21.3556 17.9741 21.7222 17.4037 22.0481L16.2222 22.7407C15.6519 23.0667 15.163 23.4741 14.5926 24.0444L13.5333 25.063C11.7 24.8185 10.0296 24.0444 8.64444 22.9444L9.82593 21.763C10.437 21.1519 10.9667 20.7444 11.4963 20.4593C12.8407 19.6852 13.9 18.5444 14.5926 17.1593C14.7556 16.8333 14.7556 16.4259 14.4296 16.1407C14.2667 15.9778 13.5741 15.7741 13.2074 16.1407L12.5148 16.8333C12.1074 17.2815 11.6185 17.6481 11.0481 17.9741L9.86667 18.6667C9.21481 19.0333 8.68518 19.4815 8.23704 19.9704L6.97407 21.2333C6.77037 20.9481 6.56667 20.7037 6.4037 20.4185L9.90741 16.9148C10.8444 15.937 11.4963 14.9185 11.9444 13.8593C12.5556 12.3519 13.4926 10.9667 14.7148 9.74444L15.163 9.2963C15.4074 9.05185 15.7333 8.15556 15.163 7.58519C14.6741 7.0963 13.9407 7.0963 13.4519 7.58519L12.3111 8.72593C11.5778 9.45926 10.7222 10.1519 9.78519 10.7222C8.72593 11.3741 7.91111 12.1889 7.34074 13.1667C7.34074 13.1667 6.60741 14.7148 5.9963 15.0815L4.97778 16.1C4.85556 15.7741 4.81481 15.4074 4.81481 15C4.81481 14.7556 4.65185 14.5926 4.40741 14.5926C4.16296 14.5926 4 14.7556 4 15C4 21.0704 8.92963 26 15 26C21.0704 26 26 21.0704 26 15C26 8.92963 21.0704 4 15 4ZM5.05926 17.1593L6.48519 15.7333C7.34074 15.0407 7.99259 13.6556 7.99259 13.6556C8.52222 12.7593 9.25556 12.0259 10.1926 11.4556C11.1704 10.8444 12.1074 10.1519 12.8815 9.37778L14.0222 8.23704C14.1852 8.07407 14.3889 8.07407 14.5926 8.23704C14.837 8.44074 14.6741 8.72593 14.5926 8.80741L14.1444 9.25556C12.8407 10.5593 11.863 12.0259 11.2111 13.6148C10.8037 14.5926 10.1926 15.5296 9.33704 16.4259L5.9963 19.7667C5.54815 18.9111 5.22222 18.0556 5.05926 17.1593ZM7.5037 21.8852L8.80741 20.5815C9.21481 20.1333 9.7037 19.7667 10.2741 19.4407L11.4556 18.7481C12.1074 18.3815 12.637 17.9333 13.0852 17.4444C13.0852 17.4444 13.8185 16.7519 13.8593 16.7519C13.8593 16.7519 12.2704 19.1148 11.0889 19.7667C10.4778 20.0926 9.90741 20.5815 9.25556 21.2333L8.03333 22.4556C7.87037 22.2519 7.66667 22.0889 7.5037 21.8852Z" fill="white"/>
<path d="M51.056 11.446V13H45.127V2.878H47.01V11.446H51.056ZM56.4853 8.583C56.4853 8.359 56.4526 8.149 56.3873 7.953C56.3266 7.75233 56.2333 7.57733 56.1073 7.428C55.9813 7.27867 55.8203 7.162 55.6243 7.078C55.433 6.98933 55.209 6.945 54.9523 6.945C54.453 6.945 54.0586 7.08733 53.7693 7.372C53.4846 7.65667 53.3026 8.06033 53.2233 8.583H56.4853ZM53.1883 9.626C53.2163 9.99467 53.2816 10.3143 53.3843 10.585C53.487 10.851 53.6223 11.0727 53.7903 11.25C53.9583 11.4227 54.1566 11.5533 54.3853 11.642C54.6186 11.726 54.8753 11.768 55.1553 11.768C55.4353 11.768 55.6756 11.7353 55.8763 11.67C56.0816 11.6047 56.259 11.5323 56.4083 11.453C56.5623 11.3737 56.6953 11.3013 56.8073 11.236C56.924 11.1707 57.036 11.138 57.1433 11.138C57.288 11.138 57.3953 11.1917 57.4653 11.299L57.9623 11.929C57.771 12.153 57.5563 12.342 57.3183 12.496C57.0803 12.6453 56.8306 12.7667 56.5693 12.86C56.3126 12.9487 56.049 13.0117 55.7783 13.049C55.5123 13.0863 55.2533 13.105 55.0013 13.105C54.502 13.105 54.0376 13.0233 53.6083 12.86C53.179 12.692 52.8056 12.447 52.4883 12.125C52.171 11.7983 51.9213 11.397 51.7393 10.921C51.5573 10.4403 51.4663 9.885 51.4663 9.255C51.4663 8.765 51.5456 8.30533 51.7043 7.876C51.863 7.442 52.0893 7.06633 52.3833 6.749C52.682 6.427 53.0436 6.17267 53.4683 5.986C53.8976 5.79933 54.3806 5.706 54.9173 5.706C55.37 5.706 55.7876 5.77833 56.1703 5.923C56.553 6.06767 56.882 6.28 57.1573 6.56C57.4326 6.83533 57.6473 7.176 57.8013 7.582C57.96 7.98333 58.0393 8.443 58.0393 8.961C58.0393 9.22233 58.0113 9.39967 57.9553 9.493C57.8993 9.58167 57.792 9.626 57.6333 9.626H53.1883ZM62.0618 9.234C62.2765 9.234 62.4631 9.206 62.6218 9.15C62.7805 9.08933 62.9111 9.00767 63.0138 8.905C63.1211 8.80233 63.2005 8.67867 63.2518 8.534C63.3078 8.38933 63.3358 8.23067 63.3358 8.058C63.3358 7.70333 63.2285 7.42333 63.0138 7.218C62.8038 7.008 62.4865 6.903 62.0618 6.903C61.6371 6.903 61.3175 7.008 61.1028 7.218C60.8928 7.42333 60.7878 7.70333 60.7878 8.058C60.7878 8.226 60.8135 8.38233 60.8648 8.527C60.9208 8.67167 61.0001 8.79767 61.1028 8.905C61.2101 9.00767 61.3431 9.08933 61.5018 9.15C61.6651 9.206 61.8518 9.234 62.0618 9.234ZM64.0148 13.322C64.0148 13.182 63.9728 13.0677 63.8888 12.979C63.8048 12.8903 63.6905 12.8227 63.5458 12.776C63.4011 12.7247 63.2308 12.6873 63.0348 12.664C62.8435 12.6407 62.6381 12.6243 62.4188 12.615C62.2041 12.601 61.9801 12.5893 61.7468 12.58C61.5181 12.5707 61.2941 12.552 61.0748 12.524C60.8835 12.6313 60.7271 12.7573 60.6058 12.902C60.4891 13.0467 60.4308 13.2147 60.4308 13.406C60.4308 13.532 60.4611 13.6487 60.5218 13.756C60.5871 13.868 60.6875 13.9637 60.8228 14.043C60.9628 14.1223 61.1425 14.183 61.3618 14.225C61.5811 14.2717 61.8495 14.295 62.1668 14.295C62.4888 14.295 62.7665 14.2693 62.9998 14.218C63.2331 14.1713 63.4245 14.1037 63.5738 14.015C63.7278 13.931 63.8398 13.8283 63.9098 13.707C63.9798 13.5903 64.0148 13.462 64.0148 13.322ZM65.7368 6.063V6.707C65.7368 6.91233 65.6131 7.03833 65.3658 7.085L64.7218 7.204C64.8198 7.45133 64.8688 7.722 64.8688 8.016C64.8688 8.37067 64.7965 8.69267 64.6518 8.982C64.5118 9.26667 64.3158 9.50933 64.0638 9.71C63.8118 9.91067 63.5131 10.067 63.1678 10.179C62.8271 10.2863 62.4585 10.34 62.0618 10.34C61.9218 10.34 61.7865 10.333 61.6558 10.319C61.5251 10.305 61.3968 10.2863 61.2708 10.263C61.0468 10.3983 60.9348 10.55 60.9348 10.718C60.9348 10.8627 61.0001 10.97 61.1308 11.04C61.2661 11.1053 61.4435 11.152 61.6628 11.18C61.8821 11.208 62.1318 11.2267 62.4118 11.236C62.6918 11.2407 62.9788 11.2547 63.2728 11.278C63.5668 11.3013 63.8538 11.3433 64.1338 11.404C64.4138 11.46 64.6635 11.551 64.8828 11.677C65.1021 11.803 65.2771 11.9757 65.4078 12.195C65.5431 12.4097 65.6108 12.6873 65.6108 13.028C65.6108 13.3453 65.5315 13.6533 65.3728 13.952C65.2188 14.2507 64.9925 14.5167 64.6938 14.75C64.3998 14.9833 64.0358 15.17 63.6018 15.31C63.1725 15.4547 62.6825 15.527 62.1318 15.527C61.5905 15.527 61.1191 15.4733 60.7178 15.366C60.3165 15.2633 59.9828 15.1233 59.7168 14.946C59.4508 14.7733 59.2525 14.5727 59.1218 14.344C58.9911 14.1153 58.9258 13.8773 58.9258 13.63C58.9258 13.294 59.0261 13.014 59.2268 12.79C59.4321 12.5613 59.7121 12.3793 60.0668 12.244C59.8755 12.146 59.7238 12.0153 59.6118 11.852C59.4998 11.6887 59.4438 11.474 59.4438 11.208C59.4438 11.1007 59.4625 10.991 59.4998 10.879C59.5418 10.7623 59.6001 10.648 59.6748 10.536C59.7541 10.424 59.8521 10.319 59.9688 10.221C60.0855 10.1183 60.2231 10.0273 60.3818 9.948C60.0178 9.752 59.7308 9.49067 59.5208 9.164C59.3155 8.83733 59.2128 8.45467 59.2128 8.016C59.2128 7.66133 59.2828 7.34167 59.4228 7.057C59.5675 6.76767 59.7658 6.52267 60.0178 6.322C60.2745 6.11667 60.5755 5.96033 60.9208 5.853C61.2708 5.74567 61.6511 5.692 62.0618 5.692C62.3698 5.692 62.6591 5.72467 62.9298 5.79C63.2005 5.85067 63.4478 5.94167 63.6718 6.063H65.7368ZM68.7253 5.818V13H66.9893V5.818H68.7253ZM68.9633 3.725C68.9633 3.87433 68.933 4.01433 68.8723 4.145C68.8116 4.27567 68.73 4.39 68.6273 4.488C68.5293 4.586 68.4126 4.66533 68.2773 4.726C68.142 4.782 67.9973 4.81 67.8433 4.81C67.694 4.81 67.5516 4.782 67.4163 4.726C67.2856 4.66533 67.1713 4.586 67.0733 4.488C66.9753 4.39 66.896 4.27567 66.8353 4.145C66.7793 4.01433 66.7513 3.87433 66.7513 3.725C66.7513 3.571 66.7793 3.42633 66.8353 3.291C66.896 3.15567 66.9753 3.039 67.0733 2.941C67.1713 2.843 67.2856 2.766 67.4163 2.71C67.5516 2.64933 67.694 2.619 67.8433 2.619C67.9973 2.619 68.142 2.64933 68.2773 2.71C68.4126 2.766 68.5293 2.843 68.6273 2.941C68.73 3.039 68.8116 3.15567 68.8723 3.291C68.933 3.42633 68.9633 3.571 68.9633 3.725ZM73.766 5.706C74.298 5.706 74.781 5.79233 75.215 5.965C75.6537 6.13767 76.027 6.38267 76.335 6.7C76.6477 7.01733 76.888 7.40467 77.056 7.862C77.224 8.31933 77.308 8.83033 77.308 9.395C77.308 9.96433 77.224 10.4777 77.056 10.935C76.888 11.3923 76.6477 11.782 76.335 12.104C76.027 12.426 75.6537 12.6733 75.215 12.846C74.781 13.0187 74.298 13.105 73.766 13.105C73.2293 13.105 72.7417 13.0187 72.303 12.846C71.8643 12.6733 71.4887 12.426 71.176 12.104C70.868 11.782 70.6277 11.3923 70.455 10.935C70.287 10.4777 70.203 9.96433 70.203 9.395C70.203 8.83033 70.287 8.31933 70.455 7.862C70.6277 7.40467 70.868 7.01733 71.176 6.7C71.4887 6.38267 71.8643 6.13767 72.303 5.965C72.7417 5.79233 73.2293 5.706 73.766 5.706ZM73.766 11.775C74.3633 11.775 74.8043 11.5743 75.089 11.173C75.3783 10.7717 75.523 10.1837 75.523 9.409C75.523 8.63433 75.3783 8.044 75.089 7.638C74.8043 7.232 74.3633 7.029 73.766 7.029C73.1593 7.029 72.709 7.23433 72.415 7.645C72.1257 8.051 71.981 8.639 71.981 9.409C71.981 10.179 72.1257 10.767 72.415 11.173C72.709 11.5743 73.1593 11.775 73.766 11.775ZM85.8553 10.613C85.958 10.613 86.049 10.6527 86.1283 10.732L86.8703 11.537C86.4597 12.0457 85.9533 12.4353 85.3513 12.706C84.754 12.9767 84.0353 13.112 83.1953 13.112C82.444 13.112 81.7673 12.9837 81.1653 12.727C80.568 12.4703 80.057 12.1133 79.6323 11.656C79.2077 11.1987 78.881 10.6527 78.6523 10.018C78.4283 9.38333 78.3163 8.69033 78.3163 7.939C78.3163 7.17833 78.4377 6.483 78.6803 5.853C78.923 5.21833 79.2637 4.67233 79.7023 4.215C80.1457 3.75767 80.673 3.403 81.2843 3.151C81.8957 2.89433 82.5723 2.766 83.3143 2.766C84.0517 2.766 84.705 2.88733 85.2743 3.13C85.8483 3.37267 86.336 3.69 86.7373 4.082L86.1073 4.957C86.07 5.013 86.021 5.062 85.9603 5.104C85.9043 5.146 85.825 5.167 85.7223 5.167C85.6523 5.167 85.58 5.14833 85.5053 5.111C85.4307 5.069 85.349 5.02 85.2603 4.964C85.1717 4.90333 85.069 4.838 84.9523 4.768C84.8357 4.698 84.7003 4.635 84.5463 4.579C84.3923 4.51833 84.2127 4.46933 84.0073 4.432C83.8067 4.39 83.5733 4.369 83.3073 4.369C82.8547 4.369 82.4393 4.45067 82.0613 4.614C81.688 4.77267 81.366 5.006 81.0953 5.314C80.8247 5.61733 80.6147 5.99067 80.4653 6.434C80.316 6.87267 80.2413 7.37433 80.2413 7.939C80.2413 8.50833 80.3207 9.01467 80.4793 9.458C80.6427 9.90133 80.862 10.2747 81.1373 10.578C81.4127 10.8813 81.737 11.1147 82.1103 11.278C82.4837 11.4367 82.885 11.516 83.3143 11.516C83.571 11.516 83.802 11.502 84.0073 11.474C84.2173 11.446 84.4087 11.4017 84.5813 11.341C84.7587 11.2803 84.9243 11.2033 85.0783 11.11C85.237 11.012 85.3933 10.893 85.5473 10.753C85.594 10.711 85.643 10.6783 85.6943 10.655C85.7457 10.627 85.7993 10.613 85.8553 10.613Z" fill="black"/>
<path d="M99.2362 2.878V13H97.5772V6.462C97.5772 6.20067 97.5912 5.91833 97.6192 5.615L94.5602 11.362C94.4155 11.6373 94.1939 11.775 93.8952 11.775H93.6292C93.3305 11.775 93.1089 11.6373 92.9642 11.362L89.8702 5.594C89.8842 5.748 89.8959 5.89967 89.9052 6.049C89.9145 6.19833 89.9192 6.336 89.9192 6.462V13H88.2602V2.878H89.6812C89.7652 2.878 89.8375 2.88033 89.8982 2.885C89.9589 2.88967 90.0125 2.90133 90.0592 2.92C90.1105 2.93867 90.1549 2.969 90.1922 3.011C90.2342 3.053 90.2739 3.109 90.3112 3.179L93.3422 8.8C93.4215 8.94933 93.4939 9.10333 93.5592 9.262C93.6292 9.42067 93.6969 9.584 93.7622 9.752C93.8275 9.57933 93.8952 9.41367 93.9652 9.255C94.0352 9.09167 94.1099 8.93533 94.1892 8.786L97.1782 3.179C97.2155 3.109 97.2552 3.053 97.2972 3.011C97.3392 2.969 97.3835 2.93867 97.4302 2.92C97.4815 2.90133 97.5375 2.88967 97.5982 2.885C97.6589 2.88033 97.7312 2.878 97.8152 2.878H99.2362ZM104.938 9.934C104.439 9.95733 104.019 10.0017 103.678 10.067C103.337 10.1277 103.064 10.207 102.859 10.305C102.654 10.403 102.507 10.5173 102.418 10.648C102.329 10.7787 102.285 10.921 102.285 11.075C102.285 11.3783 102.374 11.5953 102.551 11.726C102.733 11.8567 102.969 11.922 103.258 11.922C103.613 11.922 103.918 11.859 104.175 11.733C104.436 11.6023 104.691 11.4063 104.938 11.145V9.934ZM100.976 6.819C101.802 6.063 102.796 5.685 103.958 5.685C104.378 5.685 104.754 5.755 105.085 5.895C105.416 6.03033 105.696 6.22167 105.925 6.469C106.154 6.71167 106.326 7.00333 106.443 7.344C106.564 7.68467 106.625 8.058 106.625 8.464V13H105.841C105.678 13 105.552 12.9767 105.463 12.93C105.374 12.8787 105.304 12.7783 105.253 12.629L105.099 12.111C104.917 12.2743 104.74 12.419 104.567 12.545C104.394 12.6663 104.215 12.769 104.028 12.853C103.841 12.937 103.641 13 103.426 13.042C103.216 13.0887 102.983 13.112 102.726 13.112C102.423 13.112 102.143 13.0723 101.886 12.993C101.629 12.909 101.408 12.7853 101.221 12.622C101.034 12.4587 100.89 12.2557 100.787 12.013C100.684 11.7703 100.633 11.488 100.633 11.166C100.633 10.984 100.663 10.8043 100.724 10.627C100.785 10.445 100.883 10.2723 101.018 10.109C101.158 9.94567 101.338 9.79167 101.557 9.647C101.776 9.50233 102.045 9.37633 102.362 9.269C102.684 9.16167 103.057 9.07533 103.482 9.01C103.907 8.94 104.392 8.898 104.938 8.884V8.464C104.938 7.98333 104.835 7.62867 104.63 7.4C104.425 7.16667 104.128 7.05 103.741 7.05C103.461 7.05 103.228 7.08267 103.041 7.148C102.859 7.21333 102.698 7.288 102.558 7.372C102.418 7.45133 102.29 7.52367 102.173 7.589C102.061 7.65433 101.935 7.687 101.795 7.687C101.674 7.687 101.571 7.65667 101.487 7.596C101.403 7.53067 101.335 7.456 101.284 7.372L100.976 6.819ZM110.082 11.138C110.278 11.376 110.491 11.544 110.719 11.642C110.953 11.74 111.205 11.789 111.475 11.789C111.737 11.789 111.972 11.74 112.182 11.642C112.392 11.544 112.57 11.3947 112.714 11.194C112.864 10.9933 112.978 10.7413 113.057 10.438C113.137 10.13 113.176 9.76833 113.176 9.353C113.176 8.933 113.141 8.57833 113.071 8.289C113.006 7.995 112.91 7.757 112.784 7.575C112.658 7.393 112.504 7.26 112.322 7.176C112.145 7.092 111.942 7.05 111.713 7.05C111.354 7.05 111.048 7.127 110.796 7.281C110.544 7.43033 110.306 7.64267 110.082 7.918V11.138ZM109.991 6.798C110.285 6.46667 110.619 6.19833 110.992 5.993C111.366 5.78767 111.804 5.685 112.308 5.685C112.7 5.685 113.057 5.76667 113.379 5.93C113.706 6.09333 113.986 6.33133 114.219 6.644C114.457 6.952 114.639 7.33467 114.765 7.792C114.896 8.24467 114.961 8.765 114.961 9.353C114.961 9.88967 114.889 10.3867 114.744 10.844C114.6 11.3013 114.392 11.698 114.121 12.034C113.855 12.37 113.531 12.6337 113.148 12.825C112.77 13.0117 112.346 13.105 111.874 13.105C111.473 13.105 111.13 13.0443 110.845 12.923C110.561 12.797 110.306 12.6243 110.082 12.405V15.345H108.353V5.818H109.41C109.634 5.818 109.781 5.923 109.851 6.133L109.991 6.798ZM120.792 7.218C120.746 7.29267 120.697 7.34633 120.645 7.379C120.594 7.407 120.529 7.421 120.449 7.421C120.365 7.421 120.274 7.39767 120.176 7.351C120.083 7.30433 119.973 7.253 119.847 7.197C119.721 7.13633 119.577 7.08267 119.413 7.036C119.255 6.98933 119.066 6.966 118.846 6.966C118.506 6.966 118.237 7.03833 118.041 7.183C117.85 7.32767 117.754 7.51667 117.754 7.75C117.754 7.904 117.803 8.03467 117.901 8.142C118.004 8.24467 118.137 8.33567 118.3 8.415C118.468 8.49433 118.657 8.56667 118.867 8.632C119.077 8.69267 119.29 8.76033 119.504 8.835C119.724 8.90967 119.938 8.996 120.148 9.094C120.358 9.18733 120.545 9.30867 120.708 9.458C120.876 9.60267 121.009 9.77767 121.107 9.983C121.21 10.1883 121.261 10.4357 121.261 10.725C121.261 11.0703 121.198 11.39 121.072 11.684C120.951 11.9733 120.769 12.2253 120.526 12.44C120.284 12.65 119.983 12.8157 119.623 12.937C119.269 13.0537 118.858 13.112 118.391 13.112C118.144 13.112 117.901 13.0887 117.663 13.042C117.43 13 117.204 12.9393 116.984 12.86C116.77 12.7807 116.569 12.6873 116.382 12.58C116.2 12.4727 116.039 12.356 115.899 12.23L116.298 11.572C116.35 11.4927 116.41 11.432 116.48 11.39C116.55 11.348 116.639 11.327 116.746 11.327C116.854 11.327 116.954 11.3573 117.047 11.418C117.145 11.4787 117.257 11.544 117.383 11.614C117.509 11.684 117.656 11.7493 117.824 11.81C117.997 11.8707 118.214 11.901 118.475 11.901C118.681 11.901 118.856 11.8777 119 11.831C119.15 11.7797 119.271 11.7143 119.364 11.635C119.462 11.5557 119.532 11.4647 119.574 11.362C119.621 11.2547 119.644 11.145 119.644 11.033C119.644 10.865 119.593 10.7273 119.49 10.62C119.392 10.5127 119.259 10.4193 119.091 10.34C118.928 10.2607 118.739 10.1907 118.524 10.13C118.314 10.0647 118.097 9.99467 117.873 9.92C117.654 9.84533 117.437 9.759 117.222 9.661C117.012 9.55833 116.823 9.43 116.655 9.276C116.492 9.122 116.359 8.933 116.256 8.709C116.158 8.485 116.109 8.21433 116.109 7.897C116.109 7.603 116.168 7.323 116.284 7.057C116.401 6.791 116.571 6.56 116.795 6.364C117.024 6.16333 117.306 6.00467 117.642 5.888C117.983 5.76667 118.375 5.706 118.818 5.706C119.313 5.706 119.763 5.78767 120.169 5.951C120.575 6.11433 120.914 6.329 121.184 6.595L120.792 7.218Z" fill="#D30D3B"/>
<path d="M44.8 22.39C44.8817 22.5 44.9708 22.5775 45.0675 22.6225C45.1642 22.6675 45.2725 22.69 45.3925 22.69C45.6292 22.69 45.8108 22.6058 45.9375 22.4375C46.0642 22.2692 46.1275 22.0292 46.1275 21.7175C46.1275 21.5525 46.1125 21.4108 46.0825 21.2925C46.0542 21.1742 46.0125 21.0775 45.9575 21.0025C45.9025 20.9258 45.835 20.87 45.755 20.835C45.675 20.8 45.5842 20.7825 45.4825 20.7825C45.3375 20.7825 45.21 20.8158 45.1 20.8825C44.9917 20.9492 44.8917 21.0433 44.8 21.165V22.39ZM44.7775 20.86C44.8842 20.7283 45.0075 20.6225 45.1475 20.5425C45.2875 20.4625 45.4475 20.4225 45.6275 20.4225C45.7742 20.4225 45.9067 20.4508 46.025 20.5075C46.1433 20.5625 46.2442 20.645 46.3275 20.755C46.4108 20.8633 46.475 20.9983 46.52 21.16C46.565 21.3217 46.5875 21.5075 46.5875 21.7175C46.5875 21.9042 46.5625 22.0783 46.5125 22.24C46.4625 22.4 46.39 22.5392 46.295 22.6575C46.2017 22.7742 46.0867 22.8667 45.95 22.935C45.815 23.0017 45.6625 23.035 45.4925 23.035C45.3375 23.035 45.2042 23.0092 45.0925 22.9575C44.9825 22.9042 44.885 22.8308 44.8 22.7375V23.8575H44.3525V20.4675H44.62C44.6833 20.4675 44.7225 20.4983 44.7375 20.56L44.7775 20.86ZM48.9454 21.4575C48.9454 21.3542 48.9304 21.26 48.9004 21.175C48.872 21.0883 48.8295 21.0142 48.7729 20.9525C48.7179 20.8892 48.6504 20.8408 48.5704 20.8075C48.4904 20.7725 48.3995 20.755 48.2979 20.755C48.0845 20.755 47.9154 20.8175 47.7904 20.9425C47.667 21.0658 47.5904 21.2375 47.5604 21.4575H48.9454ZM49.3054 22.645C49.2504 22.7117 49.1845 22.77 49.1079 22.82C49.0312 22.8683 48.9487 22.9083 48.8604 22.94C48.7737 22.9717 48.6837 22.995 48.5904 23.01C48.497 23.0267 48.4045 23.035 48.3129 23.035C48.1379 23.035 47.9762 23.0058 47.8279 22.9475C47.6812 22.8875 47.5537 22.8008 47.4454 22.6875C47.3387 22.5725 47.2554 22.4308 47.1954 22.2625C47.1354 22.0942 47.1054 21.9008 47.1054 21.6825C47.1054 21.5058 47.132 21.3408 47.1854 21.1875C47.2404 21.0342 47.3187 20.9017 47.4204 20.79C47.522 20.6767 47.6462 20.5883 47.7929 20.525C47.9395 20.46 48.1045 20.4275 48.2879 20.4275C48.4395 20.4275 48.5795 20.4533 48.7079 20.505C48.8379 20.555 48.9495 20.6283 49.0429 20.725C49.1379 20.82 49.212 20.9383 49.2654 21.08C49.3187 21.22 49.3454 21.38 49.3454 21.56C49.3454 21.63 49.3379 21.6767 49.3229 21.7C49.3079 21.7233 49.2795 21.735 49.2379 21.735H47.5454C47.5504 21.895 47.572 22.0342 47.6104 22.1525C47.6504 22.2708 47.7054 22.37 47.7754 22.45C47.8454 22.5283 47.9287 22.5875 48.0254 22.6275C48.122 22.6658 48.2304 22.685 48.3504 22.685C48.462 22.685 48.5579 22.6725 48.6379 22.6475C48.7195 22.6208 48.7895 22.5925 48.8479 22.5625C48.9062 22.5325 48.9545 22.505 48.9929 22.48C49.0329 22.4533 49.067 22.44 49.0954 22.44C49.132 22.44 49.1604 22.4542 49.1804 22.4825L49.3054 22.645ZM51.5295 20.5925C51.5528 20.5558 51.5836 20.5258 51.622 20.5025C51.6603 20.4792 51.7011 20.4675 51.7445 20.4675H52.092L51.4345 21.4325C51.3945 21.4942 51.3528 21.545 51.3095 21.585C51.2661 21.6233 51.2128 21.6533 51.1495 21.675C51.2295 21.6967 51.297 21.7308 51.352 21.7775C51.407 21.8225 51.4561 21.8808 51.4995 21.9525L52.1645 23H51.8545C51.7745 23 51.7128 22.9867 51.6695 22.96C51.6261 22.9333 51.5886 22.895 51.557 22.845L51.0645 22.0575C50.9861 21.9275 50.8686 21.8625 50.712 21.8625H50.4395V23.0025H49.992V20.4675H50.4395V21.5625H50.6795C50.8128 21.5625 50.917 21.5058 50.992 21.3925L51.5295 20.5925ZM53.6497 20.4275C53.8347 20.4275 54.0014 20.4583 54.1497 20.52C54.298 20.5817 54.4247 20.6692 54.5297 20.7825C54.6347 20.8958 54.7147 21.0333 54.7697 21.195C54.8264 21.355 54.8547 21.5342 54.8547 21.7325C54.8547 21.9325 54.8264 22.1125 54.7697 22.2725C54.7147 22.4325 54.6347 22.5692 54.5297 22.6825C54.4247 22.7958 54.298 22.8833 54.1497 22.945C54.0014 23.005 53.8347 23.035 53.6497 23.035C53.463 23.035 53.2947 23.005 53.1447 22.945C52.9964 22.8833 52.8697 22.7958 52.7647 22.6825C52.6597 22.5692 52.5789 22.4325 52.5222 22.2725C52.4672 22.1125 52.4397 21.9325 52.4397 21.7325C52.4397 21.5342 52.4672 21.355 52.5222 21.195C52.5789 21.0333 52.6597 20.8958 52.7647 20.7825C52.8697 20.6692 52.9964 20.5817 53.1447 20.52C53.2947 20.4583 53.463 20.4275 53.6497 20.4275ZM53.6497 22.6875C53.8997 22.6875 54.0864 22.6042 54.2097 22.4375C54.333 22.2692 54.3947 22.035 54.3947 21.735C54.3947 21.4333 54.333 21.1983 54.2097 21.03C54.0864 20.8617 53.8997 20.7775 53.6497 20.7775C53.523 20.7775 53.4122 20.7992 53.3172 20.8425C53.2239 20.8858 53.1455 20.9483 53.0822 21.03C53.0205 21.1117 52.9739 21.2125 52.9422 21.3325C52.9122 21.4508 52.8972 21.585 52.8972 21.735C52.8972 22.035 52.9589 22.2692 53.0822 22.4375C53.2072 22.6042 53.3964 22.6875 53.6497 22.6875ZM58.3416 20.46V23H57.9391V21.3175C57.9391 21.2708 57.9416 21.2192 57.9466 21.1625C57.9533 21.1042 57.9616 21.05 57.9716 21L57.0916 22.5425C57.0783 22.5675 57.0608 22.5875 57.0391 22.6025C57.0174 22.6175 56.9924 22.625 56.9641 22.625H56.9141C56.8858 22.625 56.8599 22.6175 56.8366 22.6025C56.8149 22.5875 56.7974 22.5675 56.7841 22.5425L55.8891 20.995C55.8974 21.045 55.9049 21.1 55.9116 21.16C55.9183 21.2183 55.9216 21.2708 55.9216 21.3175V23H55.5191V20.46H55.8766C55.9083 20.46 55.9391 20.4675 55.9691 20.4825C55.9991 20.4958 56.0249 20.5217 56.0466 20.56L56.8366 21.88C56.8749 21.9567 56.9091 22.0375 56.9391 22.1225C56.9674 22.0342 57.0008 21.9533 57.0391 21.88L57.8141 20.56C57.8358 20.52 57.8616 20.4933 57.8916 20.48C57.9216 20.4667 57.9524 20.46 57.9841 20.46H58.3416ZM60.8395 21.4575C60.8395 21.3542 60.8245 21.26 60.7945 21.175C60.7662 21.0883 60.7237 21.0142 60.667 20.9525C60.612 20.8892 60.5445 20.8408 60.4645 20.8075C60.3845 20.7725 60.2937 20.755 60.192 20.755C59.9787 20.755 59.8095 20.8175 59.6845 20.9425C59.5612 21.0658 59.4845 21.2375 59.4545 21.4575H60.8395ZM61.1995 22.645C61.1445 22.7117 61.0787 22.77 61.002 22.82C60.9253 22.8683 60.8428 22.9083 60.7545 22.94C60.6678 22.9717 60.5778 22.995 60.4845 23.01C60.3912 23.0267 60.2987 23.035 60.207 23.035C60.032 23.035 59.8703 23.0058 59.722 22.9475C59.5753 22.8875 59.4478 22.8008 59.3395 22.6875C59.2328 22.5725 59.1495 22.4308 59.0895 22.2625C59.0295 22.0942 58.9995 21.9008 58.9995 21.6825C58.9995 21.5058 59.0262 21.3408 59.0795 21.1875C59.1345 21.0342 59.2128 20.9017 59.3145 20.79C59.4162 20.6767 59.5403 20.5883 59.687 20.525C59.8337 20.46 59.9987 20.4275 60.182 20.4275C60.3337 20.4275 60.4737 20.4533 60.602 20.505C60.732 20.555 60.8437 20.6283 60.937 20.725C61.032 20.82 61.1062 20.9383 61.1595 21.08C61.2128 21.22 61.2395 21.38 61.2395 21.56C61.2395 21.63 61.232 21.6767 61.217 21.7C61.202 21.7233 61.1737 21.735 61.132 21.735H59.4395C59.4445 21.895 59.4662 22.0342 59.5045 22.1525C59.5445 22.2708 59.5995 22.37 59.6695 22.45C59.7395 22.5283 59.8228 22.5875 59.9195 22.6275C60.0162 22.6658 60.1245 22.685 60.2445 22.685C60.3562 22.685 60.452 22.6725 60.532 22.6475C60.6137 22.6208 60.6837 22.5925 60.742 22.5625C60.8003 22.5325 60.8487 22.505 60.887 22.48C60.927 22.4533 60.9612 22.44 60.9895 22.44C61.0262 22.44 61.0545 22.4542 61.0745 22.4825L61.1995 22.645ZM63.9961 20.4675V23H63.5486V21.815H62.3336V23H61.8861V20.4675H62.3336V21.4775H63.5486V20.4675H63.9961ZM66.5485 22.675V20.8175H65.746C65.7293 21.0775 65.706 21.3075 65.676 21.5075C65.646 21.7075 65.611 21.8833 65.571 22.035C65.5326 22.185 65.4893 22.3125 65.441 22.4175C65.3943 22.5225 65.3451 22.6083 65.2935 22.675H66.5485ZM67.4435 22.6625V23.735C67.4435 23.7783 67.431 23.8117 67.406 23.835C67.3826 23.86 67.3518 23.8725 67.3135 23.8725H67.041V23H64.911V23.745C64.911 23.7767 64.901 23.8058 64.881 23.8325C64.8626 23.8592 64.8318 23.8725 64.7885 23.8725H64.5085V22.675H64.591C64.6493 22.675 64.7068 22.665 64.7635 22.645C64.8218 22.625 64.8776 22.5875 64.931 22.5325C64.9843 22.4758 65.0343 22.3967 65.081 22.295C65.1293 22.1933 65.1726 22.0608 65.211 21.8975C65.2493 21.7342 65.2826 21.5358 65.311 21.3025C65.3393 21.0675 65.3618 20.7892 65.3785 20.4675H66.981V22.6625H67.4435ZM69.3668 21.86C69.1618 21.8667 68.9868 21.8833 68.8418 21.91C68.6985 21.935 68.581 21.9683 68.4893 22.01C68.3993 22.0517 68.3335 22.1008 68.2918 22.1575C68.2518 22.2142 68.2318 22.2775 68.2318 22.3475C68.2318 22.4142 68.2426 22.4717 68.2643 22.52C68.286 22.5683 68.3151 22.6083 68.3518 22.64C68.3901 22.67 68.4343 22.6925 68.4843 22.7075C68.536 22.7208 68.591 22.7275 68.6493 22.7275C68.7276 22.7275 68.7993 22.72 68.8643 22.705C68.9293 22.6883 68.9901 22.665 69.0468 22.635C69.1051 22.605 69.1601 22.5692 69.2118 22.5275C69.2651 22.4858 69.3168 22.4383 69.3668 22.385V21.86ZM67.9293 20.825C68.0693 20.69 68.2201 20.5892 68.3818 20.5225C68.5435 20.4558 68.7226 20.4225 68.9193 20.4225C69.061 20.4225 69.1868 20.4458 69.2968 20.4925C69.4068 20.5392 69.4993 20.6042 69.5743 20.6875C69.6493 20.7708 69.706 20.8717 69.7443 20.99C69.7826 21.1083 69.8018 21.2383 69.8018 21.38V23H69.6043C69.561 23 69.5276 22.9933 69.5043 22.98C69.481 22.965 69.4626 22.9367 69.4493 22.895L69.3993 22.655C69.3326 22.7167 69.2676 22.7717 69.2043 22.82C69.141 22.8667 69.0743 22.9067 69.0043 22.94C68.9343 22.9717 68.8593 22.9958 68.7793 23.0125C68.701 23.0308 68.6135 23.04 68.5168 23.04C68.4185 23.04 68.326 23.0267 68.2393 23C68.1526 22.9717 68.0768 22.93 68.0118 22.875C67.9485 22.82 67.8976 22.7508 67.8593 22.6675C67.8226 22.5825 67.8043 22.4825 67.8043 22.3675C67.8043 22.2675 67.8318 22.1717 67.8868 22.08C67.9418 21.9867 68.031 21.9042 68.1543 21.8325C68.2776 21.7608 68.4385 21.7025 68.6368 21.6575C68.8351 21.6108 69.0785 21.5842 69.3668 21.5775V21.38C69.3668 21.1833 69.3243 21.035 69.2393 20.935C69.1543 20.8333 69.0301 20.7825 68.8668 20.7825C68.7568 20.7825 68.6643 20.7967 68.5893 20.825C68.516 20.8517 68.4518 20.8825 68.3968 20.9175C68.3435 20.9508 68.2968 20.9817 68.2568 21.01C68.2185 21.0367 68.1801 21.05 68.1418 21.05C68.1118 21.05 68.086 21.0425 68.0643 21.0275C68.0426 21.0108 68.0243 20.9908 68.0093 20.9675L67.9293 20.825ZM72.6212 20.8075H71.6487V23H71.2037V20.8075H70.2312V20.4675H72.6212V20.8075ZM74.7379 21.4575C74.7379 21.3542 74.7229 21.26 74.6929 21.175C74.6646 21.0883 74.6221 21.0142 74.5654 20.9525C74.5104 20.8892 74.4429 20.8408 74.3629 20.8075C74.2829 20.7725 74.1921 20.755 74.0904 20.755C73.8771 20.755 73.7079 20.8175 73.5829 20.9425C73.4596 21.0658 73.3829 21.2375 73.3529 21.4575H74.7379ZM75.0979 22.645C75.0429 22.7117 74.9771 22.77 74.9004 22.82C74.8238 22.8683 74.7413 22.9083 74.6529 22.94C74.5663 22.9717 74.4763 22.995 74.3829 23.01C74.2896 23.0267 74.1971 23.035 74.1054 23.035C73.9304 23.035 73.7688 23.0058 73.6204 22.9475C73.4738 22.8875 73.3463 22.8008 73.2379 22.6875C73.1313 22.5725 73.0479 22.4308 72.9879 22.2625C72.9279 22.0942 72.8979 21.9008 72.8979 21.6825C72.8979 21.5058 72.9246 21.3408 72.9779 21.1875C73.0329 21.0342 73.1113 20.9017 73.2129 20.79C73.3146 20.6767 73.4388 20.5883 73.5854 20.525C73.7321 20.46 73.8971 20.4275 74.0804 20.4275C74.2321 20.4275 74.3721 20.4533 74.5004 20.505C74.6304 20.555 74.7421 20.6283 74.8354 20.725C74.9304 20.82 75.0046 20.9383 75.0579 21.08C75.1113 21.22 75.1379 21.38 75.1379 21.56C75.1379 21.63 75.1304 21.6767 75.1154 21.7C75.1004 21.7233 75.0721 21.735 75.0304 21.735H73.3379C73.3429 21.895 73.3646 22.0342 73.4029 22.1525C73.4429 22.2708 73.4979 22.37 73.5679 22.45C73.6379 22.5283 73.7213 22.5875 73.8179 22.6275C73.9146 22.6658 74.0229 22.685 74.1429 22.685C74.2546 22.685 74.3504 22.6725 74.4304 22.6475C74.5121 22.6208 74.5821 22.5925 74.6404 22.5625C74.6988 22.5325 74.7471 22.505 74.7854 22.48C74.8254 22.4533 74.8596 22.44 74.8879 22.44C74.9246 22.44 74.9529 22.4542 74.9729 22.4825L75.0979 22.645ZM78.0045 23H77.5595V20.8175H76.7595C76.7395 21.1392 76.7095 21.4175 76.6695 21.6525C76.6295 21.8858 76.5812 22.085 76.5245 22.25C76.4695 22.4133 76.407 22.5467 76.337 22.65C76.2687 22.7517 76.1962 22.8308 76.1195 22.8875C76.0445 22.9442 75.9662 22.9825 75.8845 23.0025C75.8045 23.0225 75.7245 23.0325 75.6445 23.0325C75.5029 23.0325 75.432 23.01 75.432 22.965V22.6825H75.562C75.6187 22.6825 75.6762 22.6725 75.7345 22.6525C75.7929 22.6325 75.8495 22.5942 75.9045 22.5375C75.9612 22.4808 76.0154 22.4017 76.067 22.3C76.1187 22.1967 76.1654 22.0633 76.207 21.9C76.2504 21.735 76.287 21.5358 76.317 21.3025C76.3487 21.0675 76.3729 20.7892 76.3895 20.4675H78.0045V23ZM79.7818 22.675C79.8718 22.675 79.9493 22.6642 80.0143 22.6425C80.081 22.6192 80.136 22.5875 80.1793 22.5475C80.2227 22.5058 80.2552 22.4575 80.2768 22.4025C80.2985 22.3475 80.3093 22.2875 80.3093 22.2225C80.3093 22.1625 80.3002 22.1067 80.2818 22.055C80.2635 22.0017 80.2327 21.955 80.1893 21.915C80.1477 21.875 80.0927 21.8433 80.0243 21.82C79.956 21.7967 79.8727 21.785 79.7743 21.785H79.2368V22.675H79.7818ZM79.7743 21.46C79.9493 21.46 80.096 21.4808 80.2143 21.5225C80.3343 21.5642 80.4302 21.62 80.5018 21.69C80.5752 21.76 80.6277 21.8408 80.6593 21.9325C80.691 22.0242 80.7068 22.1192 80.7068 22.2175C80.7068 22.3308 80.6868 22.4358 80.6468 22.5325C80.6068 22.6275 80.5477 22.71 80.4693 22.78C80.391 22.8483 80.2943 22.9025 80.1793 22.9425C80.0643 22.9808 79.9318 23 79.7818 23H78.8093V20.4675H79.2368V21.46H79.7743ZM83.4119 20.4675V23H82.9644V21.815H81.7494V23H81.3019V20.4675H81.7494V21.4775H82.9644V20.4675H83.4119ZM85.5918 21.86C85.3868 21.8667 85.2118 21.8833 85.0668 21.91C84.9235 21.935 84.806 21.9683 84.7143 22.01C84.6243 22.0517 84.5585 22.1008 84.5168 22.1575C84.4768 22.2142 84.4568 22.2775 84.4568 22.3475C84.4568 22.4142 84.4676 22.4717 84.4893 22.52C84.511 22.5683 84.5401 22.6083 84.5768 22.64C84.6151 22.67 84.6593 22.6925 84.7093 22.7075C84.761 22.7208 84.816 22.7275 84.8743 22.7275C84.9526 22.7275 85.0243 22.72 85.0893 22.705C85.1543 22.6883 85.2151 22.665 85.2718 22.635C85.3301 22.605 85.3851 22.5692 85.4368 22.5275C85.4901 22.4858 85.5418 22.4383 85.5918 22.385V21.86ZM84.1543 20.825C84.2943 20.69 84.4451 20.5892 84.6068 20.5225C84.7685 20.4558 84.9476 20.4225 85.1443 20.4225C85.286 20.4225 85.4118 20.4458 85.5218 20.4925C85.6318 20.5392 85.7243 20.6042 85.7993 20.6875C85.8743 20.7708 85.931 20.8717 85.9693 20.99C86.0076 21.1083 86.0268 21.2383 86.0268 21.38V23H85.8293C85.786 23 85.7526 22.9933 85.7293 22.98C85.706 22.965 85.6876 22.9367 85.6743 22.895L85.6243 22.655C85.5576 22.7167 85.4926 22.7717 85.4293 22.82C85.366 22.8667 85.2993 22.9067 85.2293 22.94C85.1593 22.9717 85.0843 22.9958 85.0043 23.0125C84.926 23.0308 84.8385 23.04 84.7418 23.04C84.6435 23.04 84.551 23.0267 84.4643 23C84.3776 22.9717 84.3018 22.93 84.2368 22.875C84.1735 22.82 84.1226 22.7508 84.0843 22.6675C84.0476 22.5825 84.0293 22.4825 84.0293 22.3675C84.0293 22.2675 84.0568 22.1717 84.1118 22.08C84.1668 21.9867 84.256 21.9042 84.3793 21.8325C84.5026 21.7608 84.6635 21.7025 84.8618 21.6575C85.0601 21.6108 85.3035 21.5842 85.5918 21.5775V21.38C85.5918 21.1833 85.5493 21.035 85.4643 20.935C85.3793 20.8333 85.2551 20.7825 85.0918 20.7825C84.9818 20.7825 84.8893 20.7967 84.8143 20.825C84.741 20.8517 84.6768 20.8825 84.6218 20.9175C84.5685 20.9508 84.5218 20.9817 84.4818 21.01C84.4435 21.0367 84.4051 21.05 84.3668 21.05C84.3368 21.05 84.311 21.0425 84.2893 21.0275C84.2676 21.0108 84.2493 20.9908 84.2343 20.9675L84.1543 20.825ZM88.1371 21.65V20.7675H87.7121C87.6171 20.7675 87.5371 20.7817 87.4721 20.81C87.4071 20.8367 87.3546 20.8717 87.3146 20.915C87.2763 20.9567 87.2488 21.0042 87.2321 21.0575C87.2155 21.1092 87.2071 21.1608 87.2071 21.2125C87.2071 21.3492 87.2571 21.4567 87.3571 21.535C87.4571 21.6117 87.5938 21.65 87.7671 21.65H88.1371ZM88.5621 20.4675V23H88.1371V21.9325H87.9421C87.8955 21.9325 87.8563 21.9367 87.8246 21.945C87.7946 21.9517 87.768 21.9617 87.7446 21.975C87.723 21.9883 87.7038 22.0058 87.6871 22.0275C87.6705 22.0475 87.653 22.0708 87.6346 22.0975L87.0796 22.845C87.0513 22.8983 87.0163 22.9375 86.9746 22.9625C86.9346 22.9875 86.8755 23 86.7971 23H86.4871L87.2221 22.045C87.2821 21.945 87.3613 21.8783 87.4596 21.845C87.3313 21.8283 87.223 21.7983 87.1346 21.755C87.0463 21.7117 86.9738 21.6608 86.9171 21.6025C86.8621 21.5425 86.8221 21.4767 86.7971 21.405C86.7721 21.3333 86.7596 21.2608 86.7596 21.1875C86.7596 21.1008 86.7763 21.0142 86.8096 20.9275C86.8446 20.8408 86.8996 20.7642 86.9746 20.6975C87.0496 20.6292 87.1463 20.5742 87.2646 20.5325C87.3846 20.4892 87.5296 20.4675 87.6996 20.4675H88.5621ZM92.5123 20.9175C92.4989 20.9358 92.4856 20.95 92.4723 20.96C92.4589 20.97 92.4406 20.975 92.4173 20.975C92.3923 20.975 92.3648 20.965 92.3348 20.945C92.3048 20.9233 92.2673 20.9 92.2223 20.875C92.1789 20.85 92.1248 20.8275 92.0598 20.8075C91.9964 20.7858 91.9181 20.775 91.8248 20.775C91.6998 20.775 91.5898 20.7975 91.4948 20.8425C91.3998 20.8858 91.3198 20.9492 91.2548 21.0325C91.1914 21.1158 91.1431 21.2167 91.1098 21.335C91.0781 21.4533 91.0623 21.5858 91.0623 21.7325C91.0623 21.8858 91.0798 22.0225 91.1148 22.1425C91.1498 22.2608 91.1989 22.3608 91.2623 22.4425C91.3273 22.5225 91.4048 22.5842 91.4948 22.6275C91.5864 22.6692 91.6889 22.69 91.8023 22.69C91.9106 22.69 91.9998 22.6775 92.0698 22.6525C92.1398 22.6258 92.1973 22.5967 92.2423 22.565C92.2889 22.5333 92.3273 22.505 92.3573 22.48C92.3889 22.4533 92.4198 22.44 92.4498 22.44C92.4864 22.44 92.5148 22.4542 92.5348 22.4825L92.6598 22.645C92.6048 22.7133 92.5423 22.7717 92.4723 22.82C92.4023 22.8683 92.3264 22.9092 92.2448 22.9425C92.1648 22.9742 92.0806 22.9975 91.9923 23.0125C91.9039 23.0275 91.8139 23.035 91.7223 23.035C91.5639 23.035 91.4164 23.0058 91.2798 22.9475C91.1448 22.8892 91.0273 22.805 90.9273 22.695C90.8273 22.5833 90.7489 22.4467 90.6923 22.285C90.6356 22.1233 90.6073 21.9392 90.6073 21.7325C90.6073 21.5442 90.6331 21.37 90.6848 21.21C90.7381 21.05 90.8148 20.9125 90.9148 20.7975C91.0164 20.6808 91.1406 20.59 91.2873 20.525C91.4356 20.46 91.6056 20.4275 91.7973 20.4275C91.9756 20.4275 92.1323 20.4567 92.2673 20.515C92.4039 20.5717 92.5248 20.6525 92.6298 20.7575L92.5123 20.9175ZM95.41 20.4675V23H94.965V21.28C94.965 21.2467 94.9666 21.2108 94.97 21.1725C94.9733 21.1342 94.9775 21.0958 94.9825 21.0575C94.9675 21.0908 94.9525 21.1217 94.9375 21.15C94.9225 21.1783 94.9066 21.2042 94.89 21.2275L93.6675 22.89C93.6491 22.9167 93.6258 22.9425 93.5975 22.9675C93.5708 22.9908 93.5408 23.0025 93.5075 23.0025H93.2375V20.47H93.685V22.19C93.685 22.2217 93.6833 22.2567 93.68 22.295C93.6766 22.3317 93.6725 22.3692 93.6675 22.4075C93.6825 22.3758 93.6975 22.3467 93.7125 22.32C93.7275 22.2917 93.7425 22.2658 93.7575 22.2425L94.98 20.58C94.9983 20.5533 95.0216 20.5283 95.05 20.505C95.0783 20.48 95.1091 20.4675 95.1425 20.4675H95.41ZM97.9759 20.9175C97.9626 20.9358 97.9493 20.95 97.9359 20.96C97.9226 20.97 97.9043 20.975 97.8809 20.975C97.8559 20.975 97.8284 20.965 97.7984 20.945C97.7684 20.9233 97.7309 20.9 97.6859 20.875C97.6426 20.85 97.5884 20.8275 97.5234 20.8075C97.4601 20.7858 97.3818 20.775 97.2884 20.775C97.1634 20.775 97.0534 20.7975 96.9584 20.8425C96.8634 20.8858 96.7834 20.9492 96.7184 21.0325C96.6551 21.1158 96.6068 21.2167 96.5734 21.335C96.5418 21.4533 96.5259 21.5858 96.5259 21.7325C96.5259 21.8858 96.5434 22.0225 96.5784 22.1425C96.6134 22.2608 96.6626 22.3608 96.7259 22.4425C96.7909 22.5225 96.8684 22.5842 96.9584 22.6275C97.0501 22.6692 97.1526 22.69 97.2659 22.69C97.3743 22.69 97.4634 22.6775 97.5334 22.6525C97.6034 22.6258 97.6609 22.5967 97.7059 22.565C97.7526 22.5333 97.7909 22.505 97.8209 22.48C97.8526 22.4533 97.8834 22.44 97.9134 22.44C97.9501 22.44 97.9784 22.4542 97.9984 22.4825L98.1234 22.645C98.0684 22.7133 98.0059 22.7717 97.9359 22.82C97.8659 22.8683 97.7901 22.9092 97.7084 22.9425C97.6284 22.9742 97.5443 22.9975 97.4559 23.0125C97.3676 23.0275 97.2776 23.035 97.1859 23.035C97.0276 23.035 96.8801 23.0058 96.7434 22.9475C96.6084 22.8892 96.4909 22.805 96.3909 22.695C96.2909 22.5833 96.2126 22.4467 96.1559 22.285C96.0993 22.1233 96.0709 21.9392 96.0709 21.7325C96.0709 21.5442 96.0968 21.37 96.1484 21.21C96.2018 21.05 96.2784 20.9125 96.3784 20.7975C96.4801 20.6808 96.6043 20.59 96.7509 20.525C96.8993 20.46 97.0693 20.4275 97.2609 20.4275C97.4393 20.4275 97.5959 20.4567 97.7309 20.515C97.8676 20.5717 97.9884 20.6525 98.0934 20.7575L97.9759 20.9175ZM100.806 20.8075H99.8336V23H99.3886V20.8075H98.4161V20.4675H100.806V20.8075ZM102.923 21.4575C102.923 21.3542 102.908 21.26 102.878 21.175C102.85 21.0883 102.807 21.0142 102.75 20.9525C102.695 20.8892 102.628 20.8408 102.548 20.8075C102.468 20.7725 102.377 20.755 102.275 20.755C102.062 20.755 101.893 20.8175 101.768 20.9425C101.645 21.0658 101.568 21.2375 101.538 21.4575H102.923ZM103.283 22.645C103.228 22.7117 103.162 22.77 103.085 22.82C103.009 22.8683 102.926 22.9083 102.838 22.94C102.751 22.9717 102.661 22.995 102.568 23.01C102.475 23.0267 102.382 23.035 102.29 23.035C102.115 23.035 101.954 23.0058 101.805 22.9475C101.659 22.8875 101.531 22.8008 101.423 22.6875C101.316 22.5725 101.233 22.4308 101.173 22.2625C101.113 22.0942 101.083 21.9008 101.083 21.6825C101.083 21.5058 101.11 21.3408 101.163 21.1875C101.218 21.0342 101.296 20.9017 101.398 20.79C101.5 20.6767 101.624 20.5883 101.77 20.525C101.917 20.46 102.082 20.4275 102.265 20.4275C102.417 20.4275 102.557 20.4533 102.685 20.505C102.815 20.555 102.927 20.6283 103.02 20.725C103.115 20.82 103.19 20.9383 103.243 21.08C103.296 21.22 103.323 21.38 103.323 21.56C103.323 21.63 103.315 21.6767 103.3 21.7C103.285 21.7233 103.257 21.735 103.215 21.735H101.523C101.528 21.895 101.55 22.0342 101.588 22.1525C101.628 22.2708 101.683 22.37 101.753 22.45C101.823 22.5283 101.906 22.5875 102.003 22.6275C102.1 22.6658 102.208 22.685 102.328 22.685C102.44 22.685 102.535 22.6725 102.615 22.6475C102.697 22.6208 102.767 22.5925 102.825 22.5625C102.884 22.5325 102.932 22.505 102.97 22.48C103.01 22.4533 103.045 22.44 103.073 22.44C103.11 22.44 103.138 22.4542 103.158 22.4825L103.283 22.645ZM106.792 20.46V23H106.389V21.3175C106.389 21.2708 106.392 21.2192 106.397 21.1625C106.404 21.1042 106.412 21.05 106.422 21L105.542 22.5425C105.529 22.5675 105.511 22.5875 105.489 22.6025C105.468 22.6175 105.443 22.625 105.414 22.625H105.364C105.336 22.625 105.31 22.6175 105.287 22.6025C105.265 22.5875 105.248 22.5675 105.234 22.5425L104.339 20.995C104.348 21.045 104.355 21.1 104.362 21.16C104.369 21.2183 104.372 21.2708 104.372 21.3175V23H103.969V20.46H104.327C104.359 20.46 104.389 20.4675 104.419 20.4825C104.449 20.4958 104.475 20.5217 104.497 20.56L105.287 21.88C105.325 21.9567 105.359 22.0375 105.389 22.1225C105.418 22.0342 105.451 21.9533 105.489 21.88L106.264 20.56C106.286 20.52 106.312 20.4933 106.342 20.48C106.372 20.4667 106.403 20.46 106.434 20.46H106.792ZM108.967 21.86C108.762 21.8667 108.587 21.8833 108.442 21.91C108.299 21.935 108.182 21.9683 108.09 22.01C108 22.0517 107.934 22.1008 107.892 22.1575C107.852 22.2142 107.832 22.2775 107.832 22.3475C107.832 22.4142 107.843 22.4717 107.865 22.52C107.887 22.5683 107.916 22.6083 107.952 22.64C107.991 22.67 108.035 22.6925 108.085 22.7075C108.137 22.7208 108.192 22.7275 108.25 22.7275C108.328 22.7275 108.4 22.72 108.465 22.705C108.53 22.6883 108.591 22.665 108.647 22.635C108.706 22.605 108.761 22.5692 108.812 22.5275C108.866 22.4858 108.917 22.4383 108.967 22.385V21.86ZM107.53 20.825C107.67 20.69 107.821 20.5892 107.982 20.5225C108.144 20.4558 108.323 20.4225 108.52 20.4225C108.662 20.4225 108.787 20.4458 108.897 20.4925C109.007 20.5392 109.1 20.6042 109.175 20.6875C109.25 20.7708 109.307 20.8717 109.345 20.99C109.383 21.1083 109.402 21.2383 109.402 21.38V23H109.205C109.162 23 109.128 22.9933 109.105 22.98C109.082 22.965 109.063 22.9367 109.05 22.895L109 22.655C108.933 22.7167 108.868 22.7717 108.805 22.82C108.742 22.8667 108.675 22.9067 108.605 22.94C108.535 22.9717 108.46 22.9958 108.38 23.0125C108.302 23.0308 108.214 23.04 108.117 23.04C108.019 23.04 107.927 23.0267 107.84 23C107.753 22.9717 107.677 22.93 107.612 22.875C107.549 22.82 107.498 22.7508 107.46 22.6675C107.423 22.5825 107.405 22.4825 107.405 22.3675C107.405 22.2675 107.432 22.1717 107.487 22.08C107.542 21.9867 107.632 21.9042 107.755 21.8325C107.878 21.7608 108.039 21.7025 108.237 21.6575C108.436 21.6108 108.679 21.5842 108.967 21.5775V21.38C108.967 21.1833 108.925 21.035 108.84 20.935C108.755 20.8333 108.631 20.7825 108.467 20.7825C108.357 20.7825 108.265 20.7967 108.19 20.825C108.117 20.8517 108.052 20.8825 107.997 20.9175C107.944 20.9508 107.897 20.9817 107.857 21.01C107.819 21.0367 107.781 21.05 107.742 21.05C107.712 21.05 107.687 21.0425 107.665 21.0275C107.643 21.0108 107.625 20.9908 107.61 20.9675L107.53 20.825ZM113.305 22.675V20.8175H112.502C112.485 21.0775 112.462 21.3075 112.432 21.5075C112.402 21.7075 112.367 21.8833 112.327 22.035C112.289 22.185 112.245 22.3125 112.197 22.4175C112.15 22.5225 112.101 22.6083 112.05 22.675H113.305ZM114.2 22.6625V23.735C114.2 23.7783 114.187 23.8117 114.162 23.835C114.139 23.86 114.108 23.8725 114.07 23.8725H113.797V23H111.667V23.745C111.667 23.7767 111.657 23.8058 111.637 23.8325C111.619 23.8592 111.588 23.8725 111.545 23.8725H111.265V22.675H111.347C111.405 22.675 111.463 22.665 111.52 22.645C111.578 22.625 111.634 22.5875 111.687 22.5325C111.74 22.4758 111.79 22.3967 111.837 22.295C111.885 22.1933 111.929 22.0608 111.967 21.8975C112.005 21.7342 112.039 21.5358 112.067 21.3025C112.095 21.0675 112.118 20.7892 112.135 20.4675H113.737V22.6625H114.2ZM116.97 23H116.525V20.8175H115.725C115.705 21.1392 115.675 21.4175 115.635 21.6525C115.595 21.8858 115.547 22.085 115.49 22.25C115.435 22.4133 115.373 22.5467 115.303 22.65C115.235 22.7517 115.162 22.8308 115.085 22.8875C115.01 22.9442 114.932 22.9825 114.85 23.0025C114.77 23.0225 114.69 23.0325 114.61 23.0325C114.469 23.0325 114.398 23.01 114.398 22.965V22.6825H114.528C114.585 22.6825 114.642 22.6725 114.7 22.6525C114.759 22.6325 114.815 22.5942 114.87 22.5375C114.927 22.4808 114.981 22.4017 115.033 22.3C115.085 22.1967 115.131 22.0633 115.173 21.9C115.216 21.735 115.253 21.5358 115.283 21.3025C115.315 21.0675 115.339 20.7892 115.355 20.4675H116.97V23ZM119.108 21.65V20.7675H118.683C118.588 20.7675 118.508 20.7817 118.443 20.81C118.378 20.8367 118.325 20.8717 118.285 20.915C118.247 20.9567 118.219 21.0042 118.203 21.0575C118.186 21.1092 118.178 21.1608 118.178 21.2125C118.178 21.3492 118.228 21.4567 118.328 21.535C118.428 21.6117 118.564 21.65 118.738 21.65H119.108ZM119.533 20.4675V23H119.108V21.9325H118.913C118.866 21.9325 118.827 21.9367 118.795 21.945C118.765 21.9517 118.738 21.9617 118.715 21.975C118.693 21.9883 118.674 22.0058 118.658 22.0275C118.641 22.0475 118.623 22.0708 118.605 22.0975L118.05 22.845C118.022 22.8983 117.987 22.9375 117.945 22.9625C117.905 22.9875 117.846 23 117.768 23H117.458L118.193 22.045C118.253 21.945 118.332 21.8783 118.43 21.845C118.302 21.8283 118.193 21.7983 118.105 21.755C118.017 21.7117 117.944 21.6608 117.888 21.6025C117.833 21.5425 117.793 21.4767 117.768 21.405C117.743 21.3333 117.73 21.2608 117.73 21.1875C117.73 21.1008 117.747 21.0142 117.78 20.9275C117.815 20.8408 117.87 20.7642 117.945 20.6975C118.02 20.6292 118.117 20.5742 118.235 20.5325C118.355 20.4892 118.5 20.4675 118.67 20.4675H119.533ZM46.5375 26.4675L45.125 29.7475C45.11 29.7808 45.0908 29.8075 45.0675 29.8275C45.0458 29.8475 45.0117 29.8575 44.965 29.8575H44.635L45.0975 28.8525L44.0525 26.4675H44.4375C44.4758 26.4675 44.5058 26.4775 44.5275 26.4975C44.5508 26.5158 44.5667 26.5367 44.575 26.56L45.2525 28.155C45.2792 28.225 45.3017 28.2983 45.32 28.375C45.3433 28.2967 45.3683 28.2225 45.395 28.1525L46.0525 26.56C46.0625 26.5333 46.0792 26.5117 46.1025 26.495C46.1275 26.4767 46.155 26.4675 46.185 26.4675H46.5375ZM49.0211 29H48.5761V26.8175H47.7761C47.7561 27.1392 47.7261 27.4175 47.6861 27.6525C47.6461 27.8858 47.5978 28.085 47.5411 28.25C47.4861 28.4133 47.4236 28.5467 47.3536 28.65C47.2853 28.7517 47.2128 28.8308 47.1361 28.8875C47.0611 28.9442 46.9828 28.9825 46.9011 29.0025C46.8211 29.0225 46.7411 29.0325 46.6611 29.0325C46.5195 29.0325 46.4486 29.01 46.4486 28.965V28.6825H46.5786C46.6353 28.6825 46.6928 28.6725 46.7511 28.6525C46.8095 28.6325 46.8661 28.5942 46.9211 28.5375C46.9778 28.4808 47.032 28.4017 47.0836 28.3C47.1353 28.1967 47.182 28.0633 47.2236 27.9C47.267 27.735 47.3036 27.5358 47.3336 27.3025C47.3653 27.0675 47.3895 26.7892 47.4061 26.4675H49.0211V29ZM52.0109 26.4675L50.5984 29.7475C50.5834 29.7808 50.5643 29.8075 50.5409 29.8275C50.5193 29.8475 50.4851 29.8575 50.4384 29.8575H50.1084L50.5709 28.8525L49.5259 26.4675H49.9109C49.9493 26.4675 49.9793 26.4775 50.0009 26.4975C50.0243 26.5158 50.0401 26.5367 50.0484 26.56L50.7259 28.155C50.7526 28.225 50.7751 28.2983 50.7934 28.375C50.8168 28.2967 50.8418 28.2225 50.8684 28.1525L51.5259 26.56C51.5359 26.5333 51.5526 26.5117 51.5759 26.495C51.6009 26.4767 51.6284 26.4675 51.6584 26.4675H52.0109ZM54.3716 26.4675V29H53.9266V27.925C53.7099 27.9817 53.5057 28.0175 53.3141 28.0325C53.1241 28.0458 52.9574 28.0308 52.8141 27.9875C52.6724 27.9442 52.5599 27.8683 52.4766 27.76C52.3949 27.65 52.3541 27.4983 52.3541 27.305V26.4675H52.8016V27.2375C52.8016 27.3592 52.8257 27.455 52.8741 27.525C52.9241 27.595 52.9966 27.6433 53.0916 27.67C53.1866 27.6967 53.3041 27.7042 53.4441 27.6925C53.5841 27.6808 53.7449 27.6533 53.9266 27.61V26.4675H54.3716ZM58.5848 26.4675V29H55.1773V26.4675H55.6248V28.6625H56.6573V26.4675H57.1048V28.6625H58.1373V26.4675H58.5848ZM61.0836 27.4575C61.0836 27.3542 61.0686 27.26 61.0386 27.175C61.0103 27.0883 60.9678 27.0142 60.9111 26.9525C60.8561 26.8892 60.7886 26.8408 60.7086 26.8075C60.6286 26.7725 60.5378 26.755 60.4361 26.755C60.2228 26.755 60.0536 26.8175 59.9286 26.9425C59.8053 27.0658 59.7286 27.2375 59.6986 27.4575H61.0836ZM61.4436 28.645C61.3886 28.7117 61.3228 28.77 61.2461 28.82C61.1695 28.8683 61.087 28.9083 60.9986 28.94C60.912 28.9717 60.822 28.995 60.7286 29.01C60.6353 29.0267 60.5428 29.035 60.4511 29.035C60.2761 29.035 60.1145 29.0058 59.9661 28.9475C59.8195 28.8875 59.692 28.8008 59.5836 28.6875C59.477 28.5725 59.3936 28.4308 59.3336 28.2625C59.2736 28.0942 59.2436 27.9008 59.2436 27.6825C59.2436 27.5058 59.2703 27.3408 59.3236 27.1875C59.3786 27.0342 59.457 26.9017 59.5586 26.79C59.6603 26.6767 59.7845 26.5883 59.9311 26.525C60.0778 26.46 60.2428 26.4275 60.4261 26.4275C60.5778 26.4275 60.7178 26.4533 60.8461 26.505C60.9761 26.555 61.0878 26.6283 61.1811 26.725C61.2761 26.82 61.3503 26.9383 61.4036 27.08C61.457 27.22 61.4836 27.38 61.4836 27.56C61.4836 27.63 61.4761 27.6767 61.4611 27.7C61.4461 27.7233 61.4178 27.735 61.3761 27.735H59.6836C59.6886 27.895 59.7103 28.0342 59.7486 28.1525C59.7886 28.2708 59.8436 28.37 59.9136 28.45C59.9836 28.5283 60.067 28.5875 60.1636 28.6275C60.2603 28.6658 60.3686 28.685 60.4886 28.685C60.6003 28.685 60.6961 28.6725 60.7761 28.6475C60.8578 28.6208 60.9278 28.5925 60.9861 28.5625C61.0445 28.5325 61.0928 28.505 61.1311 28.48C61.1711 28.4533 61.2053 28.44 61.2336 28.44C61.2703 28.44 61.2986 28.4542 61.3186 28.4825L61.4436 28.645ZM64.2402 26.4675V29H63.7927V27.815H62.5777V29H62.1302V26.4675H62.5777V27.4775H63.7927V26.4675H64.2402ZM67.2201 26.4675V29H66.7751V27.28C66.7751 27.2467 66.7768 27.2108 66.7801 27.1725C66.7835 27.1342 66.7876 27.0958 66.7926 27.0575C66.7776 27.0908 66.7626 27.1217 66.7476 27.15C66.7326 27.1783 66.7168 27.2042 66.7001 27.2275L65.4776 28.89C65.4593 28.9167 65.436 28.9425 65.4076 28.9675C65.381 28.9908 65.351 29.0025 65.3176 29.0025H65.0476V26.47H65.4951V28.19C65.4951 28.2217 65.4935 28.2567 65.4901 28.295C65.4868 28.3317 65.4826 28.3692 65.4776 28.4075C65.4926 28.3758 65.5076 28.3467 65.5226 28.32C65.5376 28.2917 65.5526 28.2658 65.5676 28.2425L66.7901 26.58C66.8085 26.5533 66.8318 26.5283 66.8601 26.505C66.8885 26.48 66.9193 26.4675 66.9526 26.4675H67.2201ZM69.3561 27.65V26.7675H68.9311C68.8361 26.7675 68.7561 26.7817 68.6911 26.81C68.6261 26.8367 68.5736 26.8717 68.5336 26.915C68.4953 26.9567 68.4678 27.0042 68.4511 27.0575C68.4344 27.1092 68.4261 27.1608 68.4261 27.2125C68.4261 27.3492 68.4761 27.4567 68.5761 27.535C68.6761 27.6117 68.8128 27.65 68.9861 27.65H69.3561ZM69.7811 26.4675V29H69.3561V27.9325H69.1611C69.1144 27.9325 69.0753 27.9367 69.0436 27.945C69.0136 27.9517 68.9869 27.9617 68.9636 27.975C68.9419 27.9883 68.9228 28.0058 68.9061 28.0275C68.8894 28.0475 68.8719 28.0708 68.8536 28.0975L68.2986 28.845C68.2703 28.8983 68.2353 28.9375 68.1936 28.9625C68.1536 28.9875 68.0944 29 68.0161 29H67.7061L68.4411 28.045C68.5011 27.945 68.5803 27.8783 68.6786 27.845C68.5503 27.8283 68.4419 27.7983 68.3536 27.755C68.2653 27.7117 68.1928 27.6608 68.1361 27.6025C68.0811 27.5425 68.0411 27.4767 68.0161 27.405C67.9911 27.3333 67.9786 27.2608 67.9786 27.1875C67.9786 27.1008 67.9953 27.0142 68.0286 26.9275C68.0636 26.8408 68.1186 26.7642 68.1936 26.6975C68.2686 26.6292 68.3653 26.5742 68.4836 26.5325C68.6036 26.4892 68.7486 26.4675 68.9186 26.4675H69.7811ZM74.1412 26.4675V29H73.6962V27.28C73.6962 27.2467 73.6979 27.2108 73.7012 27.1725C73.7045 27.1342 73.7087 27.0958 73.7137 27.0575C73.6987 27.0908 73.6837 27.1217 73.6687 27.15C73.6537 27.1783 73.6379 27.2042 73.6212 27.2275L72.3987 28.89C72.3804 28.9167 72.357 28.9425 72.3287 28.9675C72.302 28.9908 72.272 29.0025 72.2387 29.0025H71.9687V26.47H72.4162V28.19C72.4162 28.2217 72.4145 28.2567 72.4112 28.295C72.4079 28.3317 72.4037 28.3692 72.3987 28.4075C72.4137 28.3758 72.4287 28.3467 72.4437 28.32C72.4587 28.2917 72.4737 28.2658 72.4887 28.2425L73.7112 26.58C73.7295 26.5533 73.7529 26.5283 73.7812 26.505C73.8095 26.48 73.8404 26.4675 73.8737 26.4675H74.1412ZM77.0547 26.4675V29H76.6072V27.815H75.3922V29H74.9447V26.4675H75.3922V27.4775H76.6072V26.4675H77.0547ZM79.4696 28.6975C79.6179 28.6908 79.7487 28.6633 79.8621 28.615C79.9771 28.5667 80.0729 28.5017 80.1496 28.42C80.2279 28.3367 80.2862 28.2375 80.3246 28.1225C80.3646 28.0075 80.3846 27.8783 80.3846 27.735C80.3846 27.59 80.3646 27.46 80.3246 27.345C80.2862 27.2283 80.2279 27.1283 80.1496 27.045C80.0729 26.9617 79.9771 26.8967 79.8621 26.85C79.7487 26.8017 79.6171 26.7733 79.4671 26.765V28.675L79.4696 28.6975ZM79.0746 26.765C78.9246 26.7733 78.7929 26.8017 78.6796 26.85C78.5662 26.8967 78.4704 26.9617 78.3921 27.045C78.3154 27.1283 78.2571 27.2283 78.2171 27.345C78.1787 27.4617 78.1596 27.5917 78.1596 27.735C78.1596 27.8783 78.1787 28.0075 78.2171 28.1225C78.2571 28.2375 78.3154 28.3367 78.3921 28.42C78.4687 28.5017 78.5637 28.5667 78.6771 28.615C78.7921 28.6633 78.9237 28.6908 79.0721 28.6975L79.0746 28.6825V26.765ZM79.4821 26.43C79.6904 26.4383 79.8779 26.475 80.0446 26.54C80.2112 26.605 80.3529 26.6942 80.4696 26.8075C80.5862 26.9208 80.6754 27.0558 80.7371 27.2125C80.8004 27.3675 80.8321 27.5408 80.8321 27.7325C80.8321 27.9242 80.8004 28.0983 80.7371 28.255C80.6754 28.41 80.5862 28.5442 80.4696 28.6575C80.3529 28.7692 80.2112 28.8575 80.0446 28.9225C79.8779 28.9875 79.6904 29.0242 79.4821 29.0325V29.8725H79.0621V29.0325C78.8537 29.0242 78.6662 28.9875 78.4996 28.9225C78.3329 28.8575 78.1912 28.7692 78.0746 28.6575C77.9579 28.5442 77.8679 28.41 77.8046 28.255C77.7429 28.0983 77.7121 27.9242 77.7121 27.7325C77.7121 27.5408 77.7429 27.3675 77.8046 27.2125C77.8679 27.0558 77.9579 26.9208 78.0746 26.8075C78.1912 26.6942 78.3329 26.605 78.4996 26.54C78.6662 26.475 78.8537 26.4383 79.0621 26.43V25.4175H79.4821V26.43ZM81.935 28.39C82.0166 28.5 82.1058 28.5775 82.2025 28.6225C82.2991 28.6675 82.4075 28.69 82.5275 28.69C82.7641 28.69 82.9458 28.6058 83.0725 28.4375C83.1991 28.2692 83.2625 28.0292 83.2625 27.7175C83.2625 27.5525 83.2475 27.4108 83.2175 27.2925C83.1891 27.1742 83.1475 27.0775 83.0925 27.0025C83.0375 26.9258 82.97 26.87 82.89 26.835C82.81 26.8 82.7191 26.7825 82.6175 26.7825C82.4725 26.7825 82.345 26.8158 82.235 26.8825C82.1266 26.9492 82.0266 27.0433 81.935 27.165V28.39ZM81.9125 26.86C82.0191 26.7283 82.1425 26.6225 82.2825 26.5425C82.4225 26.4625 82.5825 26.4225 82.7625 26.4225C82.9091 26.4225 83.0416 26.4508 83.16 26.5075C83.2783 26.5625 83.3791 26.645 83.4625 26.755C83.5458 26.8633 83.61 26.9983 83.655 27.16C83.7 27.3217 83.7225 27.5075 83.7225 27.7175C83.7225 27.9042 83.6975 28.0783 83.6475 28.24C83.5975 28.4 83.525 28.5392 83.43 28.6575C83.3366 28.7742 83.2216 28.8667 83.085 28.935C82.95 29.0017 82.7975 29.035 82.6275 29.035C82.4725 29.035 82.3391 29.0092 82.2275 28.9575C82.1175 28.9042 82.02 28.8308 81.935 28.7375V29.8575H81.4875V26.4675H81.755C81.8183 26.4675 81.8575 26.4983 81.8725 26.56L81.9125 26.86ZM85.7578 27.86C85.5528 27.8667 85.3778 27.8833 85.2328 27.91C85.0895 27.935 84.972 27.9683 84.8803 28.01C84.7903 28.0517 84.7245 28.1008 84.6828 28.1575C84.6428 28.2142 84.6228 28.2775 84.6228 28.3475C84.6228 28.4142 84.6336 28.4717 84.6553 28.52C84.677 28.5683 84.7061 28.6083 84.7428 28.64C84.7811 28.67 84.8253 28.6925 84.8753 28.7075C84.927 28.7208 84.982 28.7275 85.0403 28.7275C85.1186 28.7275 85.1903 28.72 85.2553 28.705C85.3203 28.6883 85.3811 28.665 85.4378 28.635C85.4961 28.605 85.5511 28.5692 85.6028 28.5275C85.6561 28.4858 85.7078 28.4383 85.7578 28.385V27.86ZM84.3203 26.825C84.4603 26.69 84.6111 26.5892 84.7728 26.5225C84.9345 26.4558 85.1136 26.4225 85.3103 26.4225C85.452 26.4225 85.5778 26.4458 85.6878 26.4925C85.7978 26.5392 85.8903 26.6042 85.9653 26.6875C86.0403 26.7708 86.097 26.8717 86.1353 26.99C86.1736 27.1083 86.1928 27.2383 86.1928 27.38V29H85.9953C85.952 29 85.9186 28.9933 85.8953 28.98C85.872 28.965 85.8536 28.9367 85.8403 28.895L85.7903 28.655C85.7236 28.7167 85.6586 28.7717 85.5953 28.82C85.532 28.8667 85.4653 28.9067 85.3953 28.94C85.3253 28.9717 85.2503 28.9958 85.1703 29.0125C85.092 29.0308 85.0045 29.04 84.9078 29.04C84.8095 29.04 84.717 29.0267 84.6303 29C84.5436 28.9717 84.4678 28.93 84.4028 28.875C84.3395 28.82 84.2886 28.7508 84.2503 28.6675C84.2136 28.5825 84.1953 28.4825 84.1953 28.3675C84.1953 28.2675 84.2228 28.1717 84.2778 28.08C84.3328 27.9867 84.422 27.9042 84.5453 27.8325C84.6686 27.7608 84.8295 27.7025 85.0278 27.6575C85.2261 27.6108 85.4695 27.5842 85.7578 27.5775V27.38C85.7578 27.1833 85.7153 27.035 85.6303 26.935C85.5453 26.8333 85.4211 26.7825 85.2578 26.7825C85.1478 26.7825 85.0553 26.7967 84.9803 26.825C84.907 26.8517 84.8428 26.8825 84.7878 26.9175C84.7345 26.9508 84.6878 26.9817 84.6478 27.01C84.6095 27.0367 84.5711 27.05 84.5328 27.05C84.5028 27.05 84.477 27.0425 84.4553 27.0275C84.4336 27.0108 84.4153 26.9908 84.4003 26.9675L84.3203 26.825ZM88.7332 26.9175C88.7198 26.9358 88.7065 26.95 88.6932 26.96C88.6798 26.97 88.6615 26.975 88.6382 26.975C88.6132 26.975 88.5857 26.965 88.5557 26.945C88.5257 26.9233 88.4882 26.9 88.4432 26.875C88.3998 26.85 88.3457 26.8275 88.2807 26.8075C88.2173 26.7858 88.139 26.775 88.0457 26.775C87.9207 26.775 87.8107 26.7975 87.7157 26.8425C87.6207 26.8858 87.5407 26.9492 87.4757 27.0325C87.4123 27.1158 87.364 27.2167 87.3307 27.335C87.299 27.4533 87.2832 27.5858 87.2832 27.7325C87.2832 27.8858 87.3007 28.0225 87.3357 28.1425C87.3707 28.2608 87.4198 28.3608 87.4832 28.4425C87.5482 28.5225 87.6257 28.5842 87.7157 28.6275C87.8073 28.6692 87.9098 28.69 88.0232 28.69C88.1315 28.69 88.2207 28.6775 88.2907 28.6525C88.3607 28.6258 88.4182 28.5967 88.4632 28.565C88.5098 28.5333 88.5482 28.505 88.5782 28.48C88.6098 28.4533 88.6407 28.44 88.6707 28.44C88.7073 28.44 88.7357 28.4542 88.7557 28.4825L88.8807 28.645C88.8257 28.7133 88.7632 28.7717 88.6932 28.82C88.6232 28.8683 88.5473 28.9092 88.4657 28.9425C88.3857 28.9742 88.3015 28.9975 88.2132 29.0125C88.1248 29.0275 88.0348 29.035 87.9432 29.035C87.7848 29.035 87.6373 29.0058 87.5007 28.9475C87.3657 28.8892 87.2482 28.805 87.1482 28.695C87.0482 28.5833 86.9698 28.4467 86.9132 28.285C86.8565 28.1233 86.8282 27.9392 86.8282 27.7325C86.8282 27.5442 86.854 27.37 86.9057 27.21C86.959 27.05 87.0357 26.9125 87.1357 26.7975C87.2373 26.6808 87.3615 26.59 87.5082 26.525C87.6565 26.46 87.8265 26.4275 88.0182 26.4275C88.1965 26.4275 88.3532 26.4567 88.4882 26.515C88.6248 26.5717 88.7457 26.6525 88.8507 26.7575L88.7332 26.9175ZM91.5634 26.8075H90.5909V29H90.1459V26.8075H89.1734V26.4675H91.5634V26.8075ZM92.5352 28.39C92.6168 28.5 92.706 28.5775 92.8027 28.6225C92.8993 28.6675 93.0077 28.69 93.1277 28.69C93.3643 28.69 93.546 28.6058 93.6727 28.4375C93.7993 28.2692 93.8627 28.0292 93.8627 27.7175C93.8627 27.5525 93.8477 27.4108 93.8177 27.2925C93.7893 27.1742 93.7477 27.0775 93.6927 27.0025C93.6377 26.9258 93.5702 26.87 93.4902 26.835C93.4102 26.8 93.3193 26.7825 93.2177 26.7825C93.0727 26.7825 92.9452 26.8158 92.8352 26.8825C92.7268 26.9492 92.6268 27.0433 92.5352 27.165V28.39ZM92.5127 26.86C92.6193 26.7283 92.7427 26.6225 92.8827 26.5425C93.0227 26.4625 93.1827 26.4225 93.3627 26.4225C93.5093 26.4225 93.6418 26.4508 93.7602 26.5075C93.8785 26.5625 93.9793 26.645 94.0627 26.755C94.146 26.8633 94.2102 26.9983 94.2552 27.16C94.3002 27.3217 94.3227 27.5075 94.3227 27.7175C94.3227 27.9042 94.2977 28.0783 94.2477 28.24C94.1977 28.4 94.1252 28.5392 94.0302 28.6575C93.9368 28.7742 93.8218 28.8667 93.6852 28.935C93.5502 29.0017 93.3977 29.035 93.2277 29.035C93.0727 29.035 92.9393 29.0092 92.8277 28.9575C92.7177 28.9042 92.6202 28.8308 92.5352 28.7375V29.8575H92.0877V26.4675H92.3552C92.4185 26.4675 92.4577 26.4983 92.4727 26.56L92.5127 26.86ZM97.1021 26.4675L95.6896 29.7475C95.6746 29.7808 95.6555 29.8075 95.6321 29.8275C95.6105 29.8475 95.5763 29.8575 95.5296 29.8575H95.1996L95.6621 28.8525L94.6171 26.4675H95.0021C95.0405 26.4675 95.0705 26.4775 95.0921 26.4975C95.1155 26.5158 95.1313 26.5367 95.1396 26.56L95.8171 28.155C95.8438 28.225 95.8663 28.2983 95.8846 28.375C95.908 28.2967 95.933 28.2225 95.9596 28.1525L96.6171 26.56C96.6271 26.5333 96.6438 26.5117 96.6671 26.495C96.6921 26.4767 96.7196 26.4675 96.7496 26.4675H97.1021ZM99.1328 26.5925C99.1561 26.5558 99.1869 26.5258 99.2253 26.5025C99.2636 26.4792 99.3044 26.4675 99.3478 26.4675H99.6953L99.0378 27.4325C98.9978 27.4942 98.9561 27.545 98.9128 27.585C98.8694 27.6233 98.8161 27.6533 98.7528 27.675C98.8328 27.6967 98.9003 27.7308 98.9553 27.7775C99.0103 27.8225 99.0594 27.8808 99.1028 27.9525L99.7678 29H99.4578C99.3778 29 99.3161 28.9867 99.2728 28.96C99.2294 28.9333 99.1919 28.895 99.1603 28.845L98.6678 28.0575C98.5894 27.9275 98.4719 27.8625 98.3153 27.8625H98.0428V29.0025H97.5953V26.4675H98.0428V27.5625H98.2828C98.4161 27.5625 98.5203 27.5058 98.5953 27.3925L99.1328 26.5925ZM102.388 26.8075H101.416V29H100.971V26.8075H99.9982V26.4675H102.388V26.8075ZM105.097 26.4675L103.685 29.7475C103.67 29.7808 103.651 29.8075 103.627 29.8275C103.606 29.8475 103.572 29.8575 103.525 29.8575H103.195L103.657 28.8525L102.612 26.4675H102.997C103.036 26.4675 103.066 26.4775 103.087 26.4975C103.111 26.5158 103.127 26.5367 103.135 26.56L103.812 28.155C103.839 28.225 103.862 28.2983 103.88 28.375C103.903 28.2967 103.928 28.2225 103.955 28.1525L104.612 26.56C104.622 26.5333 104.639 26.5117 104.662 26.495C104.687 26.4767 104.715 26.4675 104.745 26.4675H105.097ZM106.038 28.39C106.12 28.5 106.209 28.5775 106.306 28.6225C106.402 28.6675 106.511 28.69 106.631 28.69C106.867 28.69 107.049 28.6058 107.176 28.4375C107.302 28.2692 107.366 28.0292 107.366 27.7175C107.366 27.5525 107.351 27.4108 107.321 27.2925C107.292 27.1742 107.251 27.0775 107.196 27.0025C107.141 26.9258 107.073 26.87 106.993 26.835C106.913 26.8 106.822 26.7825 106.721 26.7825C106.576 26.7825 106.448 26.8158 106.338 26.8825C106.23 26.9492 106.13 27.0433 106.038 27.165V28.39ZM106.016 26.86C106.122 26.7283 106.246 26.6225 106.386 26.5425C106.526 26.4625 106.686 26.4225 106.866 26.4225C107.012 26.4225 107.145 26.4508 107.263 26.5075C107.381 26.5625 107.482 26.645 107.566 26.755C107.649 26.8633 107.713 26.9983 107.758 27.16C107.803 27.3217 107.826 27.5075 107.826 27.7175C107.826 27.9042 107.801 28.0783 107.751 28.24C107.701 28.4 107.628 28.5392 107.533 28.6575C107.44 28.7742 107.325 28.8667 107.188 28.935C107.053 29.0017 106.901 29.035 106.731 29.035C106.576 29.035 106.442 29.0092 106.331 28.9575C106.221 28.9042 106.123 28.8308 106.038 28.7375V29.8575H105.591V26.4675H105.858C105.921 26.4675 105.961 26.4983 105.976 26.56L106.016 26.86ZM109.461 28.675C109.551 28.675 109.628 28.6642 109.693 28.6425C109.76 28.6192 109.815 28.5875 109.858 28.5475C109.902 28.5058 109.934 28.4575 109.956 28.4025C109.978 28.3475 109.988 28.2875 109.988 28.2225C109.988 28.1625 109.979 28.1067 109.961 28.055C109.943 28.0017 109.912 27.955 109.868 27.915C109.827 27.875 109.772 27.8433 109.703 27.82C109.635 27.7967 109.552 27.785 109.453 27.785H108.913V28.675H109.461ZM109.453 27.46C109.628 27.46 109.775 27.4808 109.893 27.5225C110.013 27.5642 110.109 27.62 110.181 27.69C110.254 27.76 110.307 27.8408 110.338 27.9325C110.37 28.0242 110.386 28.1192 110.386 28.2175C110.386 28.3308 110.366 28.4358 110.326 28.5325C110.286 28.6275 110.227 28.71 110.148 28.78C110.07 28.8483 109.973 28.9025 109.858 28.9425C109.743 28.9808 109.611 29 109.461 29H108.488V26.4675H108.913V27.46H109.453ZM111.388 26.4675V29H110.943V26.4675H111.388ZM114.739 27.275C114.877 27.275 114.999 27.2567 115.104 27.22C115.21 27.1833 115.299 27.1325 115.371 27.0675C115.444 27.0008 115.499 26.9217 115.536 26.83C115.573 26.7383 115.591 26.6375 115.591 26.5275C115.591 26.2992 115.52 26.1208 115.379 25.9925C115.239 25.8642 115.025 25.8 114.739 25.8H114.164V27.275H114.739ZM114.739 25.4175C114.965 25.4175 115.162 25.4442 115.329 25.4975C115.497 25.5492 115.636 25.6233 115.746 25.72C115.856 25.8167 115.938 25.9333 115.991 26.07C116.046 26.2067 116.074 26.3592 116.074 26.5275C116.074 26.6942 116.044 26.8467 115.986 26.985C115.928 27.1233 115.842 27.2425 115.729 27.3425C115.617 27.4425 115.478 27.5208 115.311 27.5775C115.146 27.6325 114.955 27.66 114.739 27.66H114.164V29H113.681V25.4175H114.739ZM117.615 26.4275C117.8 26.4275 117.966 26.4583 118.115 26.52C118.263 26.5817 118.39 26.6692 118.495 26.7825C118.6 26.8958 118.68 27.0333 118.735 27.195C118.791 27.355 118.82 27.5342 118.82 27.7325C118.82 27.9325 118.791 28.1125 118.735 28.2725C118.68 28.4325 118.6 28.5692 118.495 28.6825C118.39 28.7958 118.263 28.8833 118.115 28.945C117.966 29.005 117.8 29.035 117.615 29.035C117.428 29.035 117.26 29.005 117.11 28.945C116.961 28.8833 116.835 28.7958 116.73 28.6825C116.625 28.5692 116.544 28.4325 116.487 28.2725C116.432 28.1125 116.405 27.9325 116.405 27.7325C116.405 27.5342 116.432 27.355 116.487 27.195C116.544 27.0333 116.625 26.8958 116.73 26.7825C116.835 26.6692 116.961 26.5817 117.11 26.52C117.26 26.4583 117.428 26.4275 117.615 26.4275ZM117.615 28.6875C117.865 28.6875 118.051 28.6042 118.175 28.4375C118.298 28.2692 118.36 28.035 118.36 27.735C118.36 27.4333 118.298 27.1983 118.175 27.03C118.051 26.8617 117.865 26.7775 117.615 26.7775C117.488 26.7775 117.377 26.7992 117.282 26.8425C117.189 26.8858 117.111 26.9483 117.047 27.03C116.986 27.1117 116.939 27.2125 116.907 27.3325C116.877 27.4508 116.862 27.585 116.862 27.735C116.862 28.035 116.924 28.2692 117.047 28.4375C117.172 28.6042 117.361 28.6875 117.615 28.6875ZM121.247 26.9175C121.233 26.9358 121.22 26.95 121.207 26.96C121.193 26.97 121.175 26.975 121.152 26.975C121.127 26.975 121.099 26.965 121.069 26.945C121.039 26.9233 121.002 26.9 120.957 26.875C120.913 26.85 120.859 26.8275 120.794 26.8075C120.731 26.7858 120.652 26.775 120.559 26.775C120.434 26.775 120.324 26.7975 120.229 26.8425C120.134 26.8858 120.054 26.9492 119.989 27.0325C119.926 27.1158 119.877 27.2167 119.844 27.335C119.812 27.4533 119.797 27.5858 119.797 27.7325C119.797 27.8858 119.814 28.0225 119.849 28.1425C119.884 28.2608 119.933 28.3608 119.997 28.4425C120.062 28.5225 120.139 28.5842 120.229 28.6275C120.321 28.6692 120.423 28.69 120.537 28.69C120.645 28.69 120.734 28.6775 120.804 28.6525C120.874 28.6258 120.932 28.5967 120.977 28.565C121.023 28.5333 121.062 28.505 121.092 28.48C121.123 28.4533 121.154 28.44 121.184 28.44C121.221 28.44 121.249 28.4542 121.269 28.4825L121.394 28.645C121.339 28.7133 121.277 28.7717 121.207 28.82C121.137 28.8683 121.061 28.9092 120.979 28.9425C120.899 28.9742 120.815 28.9975 120.727 29.0125C120.638 29.0275 120.548 29.035 120.457 29.035C120.298 29.035 120.151 29.0058 120.014 28.9475C119.879 28.8892 119.762 28.805 119.662 28.695C119.562 28.5833 119.483 28.4467 119.427 28.285C119.37 28.1233 119.342 27.9392 119.342 27.7325C119.342 27.5442 119.367 27.37 119.419 27.21C119.472 27.05 119.549 26.9125 119.649 26.7975C119.751 26.6808 119.875 26.59 120.022 26.525C120.17 26.46 120.34 26.4275 120.532 26.4275C120.71 26.4275 120.867 26.4567 121.002 26.515C121.138 26.5717 121.259 26.6525 121.364 26.7575L121.247 26.9175ZM123.69 26.9175C123.677 26.9358 123.664 26.95 123.65 26.96C123.637 26.97 123.619 26.975 123.595 26.975C123.57 26.975 123.543 26.965 123.513 26.945C123.483 26.9233 123.445 26.9 123.4 26.875C123.357 26.85 123.303 26.8275 123.238 26.8075C123.175 26.7858 123.096 26.775 123.003 26.775C122.878 26.775 122.768 26.7975 122.673 26.8425C122.578 26.8858 122.498 26.9492 122.433 27.0325C122.37 27.1158 122.321 27.2167 122.288 27.335C122.256 27.4533 122.24 27.5858 122.24 27.7325C122.24 27.8858 122.258 28.0225 122.293 28.1425C122.328 28.2608 122.377 28.3608 122.44 28.4425C122.505 28.5225 122.583 28.5842 122.673 28.6275C122.765 28.6692 122.867 28.69 122.98 28.69C123.089 28.69 123.178 28.6775 123.248 28.6525C123.318 28.6258 123.375 28.5967 123.42 28.565C123.467 28.5333 123.505 28.505 123.535 28.48C123.567 28.4533 123.598 28.44 123.628 28.44C123.665 28.44 123.693 28.4542 123.713 28.4825L123.838 28.645C123.783 28.7133 123.72 28.7717 123.65 28.82C123.58 28.8683 123.505 28.9092 123.423 28.9425C123.343 28.9742 123.259 28.9975 123.17 29.0125C123.082 29.0275 122.992 29.035 122.9 29.035C122.742 29.035 122.595 29.0058 122.458 28.9475C122.323 28.8892 122.205 28.805 122.105 28.695C122.005 28.5833 121.927 28.4467 121.87 28.285C121.814 28.1233 121.785 27.9392 121.785 27.7325C121.785 27.5442 121.811 27.37 121.863 27.21C121.916 27.05 121.993 26.9125 122.093 26.7975C122.195 26.6808 122.319 26.59 122.465 26.525C122.614 26.46 122.784 26.4275 122.975 26.4275C123.154 26.4275 123.31 26.4567 123.445 26.515C123.582 26.5717 123.703 26.6525 123.808 26.7575L123.69 26.9175ZM126.588 26.4675V29H126.143V27.28C126.143 27.2467 126.145 27.2108 126.148 27.1725C126.151 27.1342 126.156 27.0958 126.161 27.0575C126.146 27.0908 126.131 27.1217 126.116 27.15C126.101 27.1783 126.085 27.2042 126.068 27.2275L124.846 28.89C124.827 28.9167 124.804 28.9425 124.776 28.9675C124.749 28.9908 124.719 29.0025 124.686 29.0025H124.416V26.47H124.863V28.19C124.863 28.2217 124.861 28.2567 124.858 28.295C124.855 28.3317 124.851 28.3692 124.846 28.4075C124.861 28.3758 124.876 28.3467 124.891 28.32C124.906 28.2917 124.921 28.2658 124.936 28.2425L126.158 26.58C126.176 26.5533 126.2 26.5283 126.228 26.505C126.256 26.48 126.287 26.4675 126.321 26.4675H126.588ZM129.564 26.4675V29H129.119V27.28C129.119 27.2467 129.121 27.2108 129.124 27.1725C129.127 27.1342 129.132 27.0958 129.137 27.0575C129.122 27.0908 129.107 27.1217 129.092 27.15C129.077 27.1783 129.061 27.2042 129.044 27.2275L127.822 28.89C127.803 28.9167 127.78 28.9425 127.752 28.9675C127.725 28.9908 127.695 29.0025 127.662 29.0025H127.392V26.47H127.839V28.19C127.839 28.2217 127.837 28.2567 127.834 28.295C127.831 28.3317 127.827 28.3692 127.822 28.4075C127.837 28.3758 127.852 28.3467 127.867 28.32C127.882 28.2917 127.897 28.2658 127.912 28.2425L129.134 26.58C129.152 26.5533 129.176 26.5283 129.204 26.505C129.232 26.48 129.263 26.4675 129.297 26.4675H129.564Z" fill="black"/>
</svg>
